<?xml version="1.0" encoding="UTF-8"?>
<!DOCTYPE svg PUBLIC "-//W3C//DTD SVG 1.1//EN" "http://www.w3.org/Graphics/SVG/1.1/DTD/svg11.dtd">
<!-- Creator: CorelDRAW X8 -->
<svg xmlns="http://www.w3.org/2000/svg" xml:space="preserve" width="508mm" height="210mm" version="1.1" style="shape-rendering:geometricPrecision; text-rendering:geometricPrecision; image-rendering:optimizeQuality; fill-rule:evenodd; clip-rule:evenodd"
viewBox="0 0 50800 21000"
 xmlns:xlink="http://www.w3.org/1999/xlink">
 <defs>
  <style type="text/css">
   <![CDATA[
    .fil0 {fill:#DEC63E;fill-rule:nonzero}
    .fil1 {fill:#F5EEC5;fill-rule:nonzero}
   ]]>
  </style>
 </defs>
 <g id="Camada_x0020_1">
  <metadata id="CorelCorpID_0Corel-Layer"/>
  <path class="fil0" d="M4595 13581l-150 -76c-3,6 -4,9 -4,9 1,-4 58,-352 -1376,-1331 -661,-450 -935,-1182 -734,-1957 254,-978 1151,-1727 2182,-1821l15 167c-962,88 -1798,786 -2034,1696 -185,714 58,1361 665,1776 1527,1041 1485,1439 1436,1537z"/>
  <path class="fil0" d="M4457 13581c-49,-98 -91,-496 1436,-1537 607,-415 850,-1062 665,-1776 -236,-910 -1072,-1608 -2034,-1696l15 -167c1031,94 1928,843 2182,1821 201,775 -73,1507 -734,1957 -1435,979 -1377,1327 -1376,1331 0,0 -1,-3 -4,-9l-150 76z"/>
  <path class="fil0" d="M5541 7361c-761,372 -897,847 -920,1038 300,-26 530,-132 685,-315 203,-238 234,-554 235,-723zm-1086 1214l-6 -80c-2,-34 -47,-819 1136,-1340l103 -45 14 111c3,24 69,577 -268,972 -202,239 -505,366 -898,380l-81 2z"/>
  <path class="fil0" d="M3525 7361c0,170 32,487 235,724 155,182 385,288 684,314 -23,-191 -159,-666 -919,-1038zm1085 1214l-81 -2c-393,-14 -696,-141 -898,-380 -337,-395 -271,-948 -268,-972l14 -111 103 45c1183,521 1139,1306 1136,1340l-6 80z"/>
  <path class="fil0" d="M6351 9682l-915 0c-47,0 -85,-38 -85,-85 0,-46 38,-84 85,-84l915 0c46,0 84,38 84,84 0,47 -38,85 -84,85z"/>
  <path class="fil0" d="M3266 10857l-916 0c-46,0 -84,-38 -84,-84 0,-47 38,-85 84,-85l916 0c46,0 84,38 84,85 0,46 -38,84 -84,84z"/>
  <path class="fil0" d="M6529 10148l-1704 0c-46,0 -84,-38 -84,-84 0,-47 38,-84 84,-84l1704 0c47,0 84,37 84,84 0,46 -37,84 -84,84z"/>
  <path class="fil0" d="M4533 8573c-47,0 -85,-38 -85,-85l0 -1373c0,-47 38,-85 85,-85 46,0 84,38 84,85l0 1373c0,47 -38,85 -84,85z"/>
  <path class="fil1" d="M5073 13970l0 -86c13,60 0,86 0,86z"/>
  <path class="fil1" d="M5073 13884l0 0c-20,-92 -103,-266 -396,-550 60,-100 176,-246 396,-447l0 997zm-524 -668c-39,-34 -80,-71 -125,-108 -189,-239 -556,-579 -1251,-1055 -242,-362 -313,-783 -246,-1196l339 0c46,0 84,-38 84,-84 0,-47 -38,-85 -84,-85l-304 0c219,-873 1035,-1674 2111,-1773l0 1065 -248 0c-46,0 -84,37 -84,84 0,46 38,84 84,84l248 0 0 2513c-274,235 -433,417 -524,555z"/>
  <path class="fil0" d="M4424 13108c-192,-162 -440,-350 -759,-568 -209,-142 -372,-307 -492,-487 695,476 1062,816 1251,1055z"/>
  <path class="fil0" d="M4677 13334c-39,-37 -81,-76 -128,-118 91,-138 250,-320 524,-555l0 226c-220,201 -336,347 -396,447z"/>
  <path class="fil0" d="M3266 10857l-339 0c9,-57 21,-113 35,-169l304 0c46,0 84,38 84,85 0,46 -38,84 -84,84z"/>
  <path class="fil0" d="M5073 10148l-248 0c-46,0 -84,-38 -84,-84 0,-47 38,-84 84,-84l248 0 0 168z"/>
  <path class="fil1" d="M5085 13884l0 -1008c202,-183 491,-412 902,-693 661,-450 935,-1182 734,-1957 -79,-306 -222,-589 -411,-837 1050,786 1378,2336 183,3151 -1153,787 -1374,1185 -1408,1344zm0 -1233l0 -2503 1438 0c13,40 24,80 35,120 185,714 -58,1361 -665,1776 -343,233 -606,435 -808,607zm1375 -2671l-1375 0 0 -1065c248,23 483,84 700,174 154,124 291,267 409,424l-758 0c-47,0 -85,38 -85,84 0,47 38,85 85,85l871 0c59,95 110,194 153,298z"/>
  <path class="fil0" d="M5085 12876l0 -225c202,-172 465,-374 808,-607 607,-415 850,-1062 665,-1776 -11,-40 -22,-80 -35,-120l6 0c47,0 84,-38 84,-84 0,-47 -37,-84 -84,-84l-69 0c-43,-104 -94,-203 -153,-298l44 0c46,0 84,-38 84,-85 0,-46 -38,-84 -84,-84l-157 0c-118,-157 -255,-300 -409,-424 190,79 366,180 525,300 189,248 332,531 411,837 201,775 -73,1507 -734,1957 -411,281 -700,510 -902,693z"/>
  <path class="fil0" d="M6351 9682l-915 0c-47,0 -85,-38 -85,-85 0,-46 38,-84 85,-84l915 0c46,0 84,38 84,84 0,47 -38,85 -84,85z"/>
  <path class="fil0" d="M6529 10148l-1444 0 0 -168 1444 0c47,0 84,37 84,84 0,46 -37,84 -84,84z"/>
  <path class="fil1" d="M5085 13970c0,0 -13,-26 0,-86l0 86z"/>
  <path class="fil1" d="M5086 8915c0,0 -1,-5 -1,-15 0,-1 0,-3 0,-5 0,-31 4,-99 27,-189 117,43 230,95 337,155 -105,31 -226,50 -363,54zm561 -131c-151,-95 -312,-175 -480,-237 28,-65 65,-136 116,-210 55,-42 106,-90 151,-144 38,-44 71,-90 99,-137 154,-138 361,-275 638,-397 0,0 103,802 -524,1125z"/>
  <path class="fil0" d="M5449 8861c-107,-60 -220,-112 -337,-155 12,-47 30,-101 55,-159 168,62 329,142 480,237 -59,30 -125,57 -198,77z"/>
  <path class="fil0" d="M5283 8337c62,-91 143,-186 250,-281 -28,47 -61,93 -99,137 -45,54 -96,102 -151,144z"/>
  <path class="fil1" d="M5085 8915c-386,-13 -637,-139 -800,-307 77,-16 155,-27 233,-35l12 0c179,17 355,55 523,112 28,101 32,176 32,210 0,2 0,4 0,5 0,10 0,15 0,15zm-464 -516c8,-65 29,-164 84,-280 78,77 140,154 189,228 -83,26 -174,43 -273,52zm-177 0c-129,-11 -245,-37 -347,-78 -131,-302 -103,-615 -98,-657 349,296 428,593 445,735zm4 -471c-7,-12 -15,-24 -23,-37 8,6 16,11 23,16l0 21z"/>
  <path class="fil0" d="M4285 8608c-22,-24 -43,-48 -63,-73 74,16 151,28 233,34l0 6 63 -2c-78,8 -156,19 -233,35z"/>
  <path class="fil0" d="M5053 8685c-168,-57 -344,-95 -523,-112l3 0 77 2 1 -6c134,-10 258,-34 370,-73 33,69 56,133 72,189z"/>
  <path class="fil0" d="M4455 8575l0 -6c24,1 49,3 74,4l4 0 -3 0 -12 0 -63 2zm156 -6l4 -66c1,-5 2,-10 2,-15l0 -8c0,-6 0,-14 0,-23l0 -420c31,28 60,55 88,82 -55,116 -76,215 -84,280 99,-9 190,-26 273,-52 35,52 63,102 87,149 -112,39 -236,63 -370,73z"/>
  <path class="fil0" d="M4610 8575l-77 -2 -4 0c-25,-1 -50,-3 -74,-4 -82,-6 -159,-18 -233,-34 -52,-68 -93,-141 -125,-214 102,41 218,67 347,78 -17,-142 -96,-439 -445,-735 0,-3 0,-5 0,-5 166,73 307,152 426,232 8,13 16,25 23,37l0 560c0,47 38,85 85,85 41,0 76,-30 82,-70l-4 66 -1 6zm7 -95l0 -23c0,9 0,17 0,23z"/>
  <path class="fil0" d="M4533 8573c-47,0 -85,-38 -85,-85l0 -581c62,43 118,87 169,130l0 451c0,5 -1,10 -2,15 -6,40 -41,70 -82,70z"/>
 </g>
</svg>
