<?xml version="1.0" encoding="UTF-8"?>
<!DOCTYPE svg PUBLIC "-//W3C//DTD SVG 1.1//EN" "http://www.w3.org/Graphics/SVG/1.1/DTD/svg11.dtd">
<!-- Creator: CorelDRAW X8 -->
<svg xmlns="http://www.w3.org/2000/svg" xml:space="preserve" width="508mm" height="210mm" version="1.1" style="shape-rendering:geometricPrecision; text-rendering:geometricPrecision; image-rendering:optimizeQuality; fill-rule:evenodd; clip-rule:evenodd"
viewBox="0 0 50800 21000"
 xmlns:xlink="http://www.w3.org/1999/xlink">
 <defs>
  <style type="text/css">
   <![CDATA[
    .fil0 {fill:#A93E35;fill-rule:nonzero}
    .fil1 {fill:#EED8D7;fill-rule:nonzero}
   ]]>
  </style>
 </defs>
 <g id="Camada_x0020_1">
  <metadata id="CorelCorpID_0Corel-Layer"/>
  <path class="fil0" d="M15306 7981c-154,0 -279,125 -279,278 0,154 125,279 279,279l1994 0c153,0 278,-125 278,-279 0,-153 -125,-278 -278,-278l-1994 0zm1994 725l-1994 0c-246,0 -447,-200 -447,-447 0,-246 201,-447 447,-447l1994 0c246,0 447,201 447,447 0,247 -201,447 -447,447z"/>
  <path class="fil0" d="M13965 12845c-44,0 -89,-1 -134,-2l-19 0 -17 -9c-23,-11 -542,-283 -554,-694 -7,-253 178,-492 549,-710 253,-148 507,-258 753,-365 854,-370 1592,-690 1676,-2447 2,-46 42,-82 88,-80 46,2 82,42 80,88 -89,1862 -909,2217 -1777,2594 -241,104 -491,212 -734,356 -315,184 -472,372 -466,560 7,248 309,465 445,540 1102,22 1935,-288 2477,-920 1009,-1177 678,-3100 675,-3119 -8,-46 22,-89 68,-98 46,-8 89,23 98,68 3,21 89,509 47,1156 -40,601 -204,1453 -759,2101 -558,651 -1397,981 -2496,981z"/>
  <path class="fil0" d="M12668 12239c-382,0 -605,-155 -618,-165l-12 -9 -8 -12c-182,-263 -233,-515 -151,-747 169,-480 844,-687 872,-696l9 -3 10 0c874,-61 1618,-417 2211,-1059 445,-482 633,-952 635,-957 17,-43 66,-64 109,-47 43,17 64,66 47,109 -7,20 -198,500 -662,1004 -428,464 -1177,1034 -2318,1117 -75,24 -623,215 -754,588 -62,175 -21,371 121,583 73,45 483,269 1133,-17 42,-18 92,1 110,44 19,42 0,92 -43,111 -266,117 -499,156 -691,156z"/>
  <path class="fil0" d="M14510 12239c-41,0 -76,-30 -83,-71 -8,-46 23,-89 69,-97 4,0 459,-80 947,-393 649,-418 1047,-1031 1183,-1822 8,-46 51,-77 97,-69 46,8 77,51 69,97 -180,1050 -787,1634 -1264,1939 -516,330 -985,411 -1004,414 -5,1 -10,2 -14,2z"/>
  <path class="fil1" d="M14434 13202c-44,0 -88,-1 -132,-2 0,0 -269,-137 -415,-356 26,1 52,1 78,1 1099,0 1938,-330 2496,-981 555,-648 719,-1500 759,-2101 32,-484 -9,-880 -32,-1057l112 0c220,0 403,-159 440,-369l49 0c189,0 342,152 342,339l0 48c0,188 -153,339 -342,339l-231 0c0,0 746,4139 -3124,4139zm-469 -525c-36,0 -73,-1 -110,-1 -16,-9 -34,-20 -54,-32 -11,-64 -9,-132 13,-203 -6,-6 -11,-12 -15,-18 -4,15 -5,24 -5,24 -58,25 -113,47 -168,65 -111,-101 -212,-234 -216,-376 -6,-188 151,-376 466,-560 243,-144 493,-252 734,-356 856,-371 1665,-722 1773,-2514l634 0c49,356 215,2000 -685,3050 -524,611 -1319,921 -2367,921zm2744 -2891c-40,0 -76,29 -83,70 -136,791 -534,1404 -1183,1822 -488,313 -943,393 -947,393 -46,8 -77,51 -69,97 7,41 42,71 83,71 4,0 9,-1 14,-2 19,-3 488,-84 1004,-414 477,-305 1084,-889 1264,-1939 8,-46 -23,-89 -69,-97 -4,-1 -9,-1 -14,-1zm-1567 1756c-3,1 -7,2 -10,3l-2 2c4,-2 8,-4 12,-5zm1630 -2479c-14,254 -39,494 -83,718 41,-209 70,-447 83,-718zm-3634 3533c-364,0 -571,-149 -571,-149 -54,-79 -94,-155 -122,-226 67,11 141,18 223,18 163,0 356,-28 573,-109 0,4 0,7 0,10 5,167 93,310 198,423 -110,23 -211,33 -301,33zm-471 -525c-105,0 -194,-13 -268,-31 -76,-632 845,-908 845,-908 2168,-151 2919,-2069 2919,-2069l-409 0c-61,0 -119,-16 -169,-44 84,-140 137,-251 165,-313l464 0c-104,1680 -831,1995 -1671,2359 -246,107 -500,217 -753,365 -268,158 -439,327 -511,504 -238,103 -444,137 -612,137zm2793 -3173c-31,-51 -48,-110 -48,-174l0 -18 151 0c-25,51 -59,116 -103,192zm1840 -360l-1858 0c53,-118 173,-201 312,-201l1813 0c-34,116 -141,201 -267,201z"/>
  <path class="fil0" d="M17300 8706l-112 0c-8,-59 -14,-94 -15,-99 -8,-40 -43,-69 -83,-69 -5,0 -10,1 -15,1 -46,9 -76,52 -68,98 0,2 4,26 10,69l-634 0c1,-26 3,-53 4,-80 2,-46 -34,-86 -80,-88 -2,0 -3,0 -4,0 -45,0 -82,35 -84,80 -2,30 -3,59 -5,88l-464 0c14,-31 21,-49 22,-53 17,-43 -4,-92 -47,-109 -10,-4 -21,-6 -31,-6 -34,0 -65,20 -78,53 -1,2 -18,44 -53,115l-151 0 0 -30c0,-49 10,-96 30,-138l1858 0c126,0 233,-85 267,-201l173 0c-37,210 -220,369 -440,369z"/>
  <path class="fil0" d="M13965 12845c-26,0 -52,0 -78,-1 -41,-61 -72,-128 -86,-200 20,12 38,23 54,32 37,0 74,1 110,1 1048,0 1843,-310 2367,-921 900,-1050 734,-2694 685,-3050 -6,-43 -10,-67 -10,-69 -8,-46 22,-89 68,-98 5,0 10,-1 15,-1 40,0 75,29 83,69 1,5 7,40 15,99 23,177 64,573 32,1057 -40,601 -204,1453 -759,2101 -558,651 -1397,981 -2496,981zm-526 -282c-105,-113 -193,-256 -198,-423 0,-3 0,-6 0,-10 39,-14 78,-30 118,-47 43,-19 62,-69 43,-111 -13,-32 -44,-51 -77,-51 -11,0 -22,3 -33,7 -4,2 -9,4 -13,6 72,-177 243,-346 511,-504 253,-148 507,-258 753,-365 840,-364 1567,-679 1671,-2359 2,-29 3,-58 5,-88 2,-45 39,-80 84,-80 1,0 2,0 4,0 46,2 82,42 80,88 -1,27 -3,54 -4,80 -108,1792 -917,2143 -1773,2514 -241,104 -491,212 -734,356 -315,184 -472,372 -466,560 4,142 105,275 216,376 -65,21 -127,38 -187,51z"/>
  <path class="fil0" d="M12668 12239c-82,0 -156,-7 -223,-18 -25,-63 -40,-124 -46,-181 74,18 163,31 268,31 168,0 374,-34 612,-137 4,-2 9,-4 13,-6 11,-4 22,-7 33,-7 33,0 64,19 77,51 19,42 0,92 -43,111 -40,17 -79,33 -118,47 -217,81 -410,109 -573,109zm2917 -3220c-51,-29 -94,-70 -125,-121 44,-76 78,-141 103,-192 35,-71 52,-113 53,-115 13,-33 44,-53 78,-53 10,0 21,2 31,6 43,17 64,66 47,109 -1,4 -8,22 -22,53 -28,62 -81,173 -165,313z"/>
  <path class="fil0" d="M14510 12239c-41,0 -76,-30 -83,-71 -8,-46 23,-89 69,-97 4,0 459,-80 947,-393 649,-418 1047,-1031 1183,-1822 7,-41 43,-70 83,-70 5,0 10,0 14,1 46,8 77,51 69,97 -180,1050 -787,1634 -1264,1939 -516,330 -985,411 -1004,414 -5,1 -10,2 -14,2zm2167 -2399c-1,5 -2,10 -3,16 1,-6 2,-11 3,-16z"/>
 </g>
</svg>
