<?xml version="1.0" encoding="UTF-8"?>
<!DOCTYPE svg PUBLIC "-//W3C//DTD SVG 1.1//EN" "http://www.w3.org/Graphics/SVG/1.1/DTD/svg11.dtd">
<!-- Creator: CorelDRAW X8 -->
<svg xmlns="http://www.w3.org/2000/svg" xml:space="preserve" width="508mm" height="210mm" version="1.1" style="shape-rendering:geometricPrecision; text-rendering:geometricPrecision; image-rendering:optimizeQuality; fill-rule:evenodd; clip-rule:evenodd"
viewBox="0 0 50800 21000"
 xmlns:xlink="http://www.w3.org/1999/xlink">
 <defs>
  <style type="text/css">
   <![CDATA[
    .fil0 {fill:#829E53;fill-rule:nonzero}
    .fil1 {fill:#E6ECDD;fill-rule:nonzero}
   ]]>
  </style>
 </defs>
 <g id="Camada_x0020_1">
  <metadata id="CorelCorpID_0Corel-Layer"/>
  <path class="fil0" d="M25451 12664l-801 0c-296,0 -567,-173 -689,-441 -56,-123 -77,-259 -61,-393l1 -9 305 -1225 137 34 -304 1220c-12,108 5,217 50,315 99,218 319,359 561,359l801 0c176,0 345,-76 461,-207 114,-128 169,-298 150,-467l-281 -1222 137 -31 281 1225 2 8c24,210 -43,422 -184,581 -143,161 -350,253 -566,253z"/>
  <path class="fil0" d="M25069 10348c294,0 630,79 954,331l6 5c35,34 72,66 111,95 180,132 393,201 617,201 572,0 1037,-460 1037,-1025 0,-21 -1,-41 -2,-61l0 -8c1,-21 2,-42 2,-63 0,-379 -210,-726 -548,-905 -6,-3 -12,-8 -17,-13 -5,-4 -454,-445 -1219,-658 -1011,-280 -2118,-34 -3201,711 -300,191 -479,514 -479,865 0,20 1,41 2,61l0 9c-1,20 -2,41 -2,62 0,565 465,1025 1037,1025 321,0 619,-143 817,-394 5,-7 12,-13 20,-18 61,-34 414,-220 865,-220zm1688 773c-254,0 -496,-80 -700,-229 -43,-32 -85,-67 -123,-105 -724,-559 -1514,-175 -1649,-103 -225,278 -559,437 -918,437 -649,0 -1177,-523 -1177,-1166 0,-22 1,-45 2,-67 -1,-21 -2,-43 -2,-65 0,-399 203,-766 542,-982 779,-536 1991,-1099 3323,-727 752,211 1200,622 1265,685 379,205 614,596 614,1024 0,22 -1,45 -2,67 1,22 2,43 2,65 0,643 -528,1166 -1177,1166z"/>
  <path class="fil0" d="M26902 8917c-1,-6 -3,-12 -5,-19 -2,-6 -5,-13 -7,-20 -5,-13 -10,-28 -17,-44 -6,-16 -13,-32 -21,-49 -8,-16 -16,-34 -26,-50 -9,-17 -19,-34 -29,-51 -10,-17 -21,-33 -32,-49 -11,-16 -22,-31 -34,-46 -11,-14 -22,-28 -33,-41 -12,-13 -22,-25 -33,-35 -5,-6 -10,-11 -14,-16 -5,-4 -10,-9 -14,-13 -9,-8 -17,-15 -24,-20 -13,-11 -21,-17 -21,-17 0,0 4,9 11,24 4,8 9,18 14,28 6,11 13,22 19,35 7,13 15,27 23,41 9,14 17,30 26,45 10,15 19,31 29,47 9,17 20,33 30,49 10,17 19,33 30,49 10,16 20,32 29,47 10,15 20,29 28,43 9,14 18,27 26,39 9,12 17,23 23,33 7,10 13,18 19,25 10,14 17,22 17,22 0,0 -2,-10 -6,-27 -2,-8 -5,-19 -8,-30z"/>
  <path class="fil0" d="M27293 10315c-2,-25 -5,-50 -8,-75 -4,-26 -7,-51 -11,-77 -6,-52 -14,-104 -22,-157 -8,-52 -15,-105 -24,-156 -8,-52 -17,-103 -27,-152 -9,-49 -20,-96 -32,-141 -6,-22 -13,-43 -19,-64 -7,-21 -13,-41 -20,-59 -7,-19 -14,-38 -21,-54 -4,-9 -7,-17 -11,-25 -3,-8 -7,-16 -10,-23 -7,-15 -14,-29 -21,-41 -3,-6 -6,-12 -9,-18 -3,-6 -6,-11 -9,-16 -6,-10 -11,-19 -16,-27 -5,-7 -10,-14 -13,-19 -7,-10 -11,-16 -11,-16 0,0 3,6 8,18 2,5 5,12 9,21 4,8 7,18 11,28 3,6 5,11 7,17 2,6 5,13 7,19 4,13 10,27 15,43 2,7 5,15 7,23 3,8 5,17 7,25 6,18 11,36 16,55 19,76 36,166 51,264 7,49 14,99 21,151 7,51 15,104 22,156 8,53 16,105 24,156 8,52 16,102 24,151 8,49 15,96 19,141 4,44 7,86 7,125 0,10 0,20 0,29 0,9 -1,18 -1,27 0,18 -3,35 -4,51 -2,16 -4,30 -7,44 -2,13 -4,26 -7,37 -3,11 -6,21 -8,30 -2,9 -5,16 -7,22 -4,12 -6,18 -6,18 0,0 4,-6 10,-17 2,-5 6,-12 10,-20 4,-9 8,-18 13,-29 4,-11 8,-23 13,-37 3,-6 4,-14 6,-21 2,-7 5,-15 7,-23 7,-32 14,-69 17,-109 4,-40 5,-84 4,-130 -1,-47 -5,-95 -11,-145z"/>
  <path class="fil0" d="M26757 9502c9,18 16,31 21,41 4,9 7,14 7,14 0,0 -1,-5 -4,-16 -3,-10 -7,-25 -12,-43 -6,-19 -12,-42 -20,-68 -8,-26 -17,-55 -28,-87 -10,-32 -21,-67 -33,-103 -13,-36 -26,-74 -40,-114 -14,-39 -29,-80 -44,-121 -15,-41 -31,-82 -47,-124 -16,-42 -33,-83 -50,-124 -16,-41 -34,-81 -52,-119 -18,-38 -36,-75 -55,-109 -18,-34 -38,-65 -56,-93 -10,-15 -19,-28 -28,-41 -9,-12 -18,-24 -26,-35 -17,-21 -33,-40 -46,-54 -13,-15 -25,-25 -32,-33 -8,-7 -12,-11 -12,-11 0,0 3,4 9,13 6,9 15,22 25,38 11,17 22,37 36,60 6,12 13,25 21,38 6,14 14,27 22,42 7,15 15,31 22,47 4,8 8,16 11,24 4,9 8,17 12,26 15,35 31,72 46,110 8,19 16,39 23,59 8,20 16,40 24,60 15,41 31,83 47,124 16,42 33,83 49,124 16,41 33,81 49,119 16,39 32,76 47,111 16,35 31,68 45,99 13,30 27,58 38,83 12,24 22,46 31,63z"/>
  <path class="fil0" d="M26891 10244c-1,-26 -1,-53 -3,-79 -2,-27 -3,-53 -5,-80 -3,-26 -6,-53 -8,-79 -2,-13 -3,-27 -6,-40 -2,-13 -4,-26 -6,-39l-6 -40c-3,-13 -5,-26 -8,-39l-9 -39 -4 -20c-2,-6 -4,-12 -6,-19 -7,-25 -14,-51 -23,-76 2,27 4,53 7,79l1 20 2 20 2 39c1,13 2,26 3,39l1 40c1,26 3,52 3,78l2 79c0,26 0,52 1,79 0,26 0,52 0,78l1 40 0 39 0 79 1 79 1 39 0 39c0,13 -1,25 -2,38 0,7 0,13 -1,19l-2 19 -2 19 -1 2 0 1 0 1 0 -1 0 0 -1 5 -2 10 -4 19c-2,6 -3,12 -5,18 -2,6 -3,12 -5,18l-6 18c-4,12 -9,24 -14,36 -10,24 -21,48 -32,72l-17 36c-6,12 -12,24 -18,36l0 0 -9 20 14 -18c17,-20 32,-42 48,-63 15,-22 31,-45 44,-68 6,-12 13,-24 19,-36l9 -18c3,-7 6,-13 8,-20 3,-6 5,-13 8,-19l6 -19 3 -10 1 -5 0 0 1 -1 0 -1 0 -1 1 -3 4 -20 4 -20c2,-7 2,-14 3,-21 1,-13 4,-27 4,-40 1,-14 2,-28 2,-41l2 -40 1 -79c0,-26 0,-53 0,-79 -1,-27 -1,-53 -2,-80z"/>
  <path class="fil0" d="M26239 9005c10,22 19,40 26,55 7,15 13,27 17,35 5,8 7,12 7,12 0,0 -1,-5 -3,-14 -2,-8 -5,-21 -9,-37 -4,-16 -9,-36 -15,-59 -6,-22 -13,-47 -21,-75 -8,-27 -17,-57 -26,-88 -10,-31 -20,-64 -31,-98 -11,-34 -23,-69 -37,-104 -3,-9 -7,-18 -11,-27 -4,-9 -8,-19 -12,-28 -2,-4 -4,-9 -6,-13l-7 -13 -13 -25c-21,-35 -43,-67 -67,-97 -12,-16 -25,-30 -37,-44 -12,-14 -25,-27 -37,-40 -25,-27 -49,-52 -72,-75 -12,-12 -24,-23 -35,-33 -12,-11 -24,-21 -34,-30 -23,-19 -44,-35 -64,-48 -20,-14 -39,-23 -54,-31 -7,-4 -14,-7 -20,-9 -6,-3 -11,-5 -15,-7 -9,-3 -13,-5 -13,-5 0,0 4,3 11,8 7,6 18,13 31,24 13,10 28,23 45,39 8,7 17,16 26,25 8,10 19,19 28,29 19,21 38,44 59,69 21,25 42,52 65,79 23,28 45,56 67,85 6,8 11,15 16,22l9 11 7 12 15 23 7 11 1 1 0 1 2 3 3 6 14 25 7 13c2,4 3,8 5,12 4,8 8,17 12,25 3,8 7,16 10,24 8,17 15,34 21,51 7,17 14,33 20,50 14,33 27,65 39,95 13,30 25,58 37,84 11,27 22,50 32,71z"/>
  <path class="fil0" d="M26433 9888c-1,-12 -1,-24 -1,-36 0,-12 -2,-23 -2,-35 -2,-23 -3,-46 -5,-68 -2,-23 -5,-45 -7,-66 -1,-11 -3,-21 -4,-32 -1,-10 -3,-21 -5,-31 -3,-20 -6,-40 -9,-59 -3,-19 -7,-38 -11,-55 -3,-18 -6,-35 -10,-51 -3,-16 -7,-31 -10,-45 -4,-14 -7,-27 -10,-40 -3,-12 -7,-23 -9,-33 -6,-20 -11,-36 -14,-47 -3,-10 -5,-16 -5,-16 0,0 1,6 2,17 1,11 2,28 4,48 2,11 3,22 4,35 1,12 3,26 4,40 1,15 3,30 4,46 2,16 3,33 5,51 1,17 3,36 5,55 1,19 2,39 4,59 0,10 1,20 2,31 0,10 1,21 1,31 1,22 3,43 4,65 0,44 3,90 2,136 0,12 0,23 0,35l0 18 -1 17c-1,23 -2,47 -2,70 -1,24 -4,47 -5,70 -1,12 -1,24 -3,35 -1,12 -2,23 -3,35 -2,11 -3,22 -4,34 -1,5 -1,11 -2,17 -1,5 -2,11 -2,17 -4,22 -7,44 -11,66 -1,11 -3,21 -5,32 -3,10 -5,21 -7,31 -2,11 -4,21 -6,31 -1,10 -5,20 -7,30 -5,19 -9,38 -14,57 -2,9 -5,18 -7,27 -3,9 -6,17 -8,26 -5,17 -10,33 -15,48 -5,15 -11,30 -16,43 -4,14 -9,26 -13,38 -4,12 -9,23 -13,32 -8,19 -14,35 -19,45 -4,10 -6,16 -6,16 0,0 3,-5 10,-14 6,-10 15,-23 26,-41 6,-9 12,-19 18,-30 6,-11 13,-23 19,-36 7,-13 15,-27 22,-42 7,-15 14,-31 21,-47 3,-9 7,-17 11,-26 3,-9 7,-17 10,-27 6,-18 13,-37 20,-57 7,-19 12,-40 18,-61 3,-11 5,-21 8,-32 3,-11 6,-22 8,-33 5,-22 9,-45 14,-68 1,-5 2,-11 3,-17 1,-6 1,-11 2,-17 2,-12 3,-24 5,-35 2,-12 3,-24 5,-36 1,-12 2,-24 3,-36 2,-24 4,-48 5,-72 1,-24 2,-48 2,-72l1 -18 -1 -18c0,-12 0,-24 0,-35z"/>
  <path class="fil0" d="M25609 8503c-1,-6 -2,-11 -3,-17 -1,-5 -3,-11 -4,-17 -4,-12 -7,-25 -12,-39 -4,-14 -10,-28 -16,-43 -6,-14 -12,-29 -19,-44 -8,-15 -16,-29 -24,-44 -9,-14 -18,-29 -27,-42 -9,-14 -20,-27 -29,-39 -5,-6 -10,-12 -15,-18 -5,-6 -10,-12 -15,-17 -10,-10 -20,-20 -29,-29 -5,-4 -9,-9 -13,-12 -5,-4 -9,-7 -13,-11 -8,-6 -15,-11 -21,-16 -12,-8 -20,-13 -20,-13 0,0 4,8 10,21 3,7 7,15 12,24 3,4 6,9 8,14 3,5 6,10 9,16 5,10 12,22 19,34 7,11 14,25 22,38 3,6 7,13 11,20 5,6 8,13 12,20 8,14 16,27 25,41 8,14 16,28 24,42 4,6 8,13 12,20 4,7 8,13 12,20 4,6 7,13 11,19 4,6 8,12 11,18 7,12 14,23 21,34 3,5 7,10 10,15 3,4 5,9 8,13 6,9 11,16 15,22 8,12 14,19 14,19 0,0 -1,-8 -2,-23 -1,-7 -3,-16 -4,-26z"/>
  <path class="fil0" d="M25871 9573l-2 -51c-3,-34 -4,-69 -8,-103l-5 -51c-2,-17 -5,-34 -7,-51 -4,-34 -11,-68 -16,-102 -3,-16 -7,-33 -10,-50 -4,-17 -7,-34 -11,-50 -9,-33 -16,-67 -26,-100 -5,-16 -9,-33 -14,-49 -5,-16 -11,-33 -16,-49 -11,-32 -23,-64 -35,-96 3,17 6,33 9,50l5 25 5 25c3,17 6,34 9,50 3,17 5,34 8,51 6,33 11,66 16,100 2,17 4,33 6,50 2,17 4,34 6,50 4,34 7,67 10,101 1,17 3,33 4,50l3 51 2 25 1 25 2 50 1 51c1,17 1,34 1,50l0 51c0,17 -1,33 -1,50 0,34 -2,67 -4,101 -2,34 -3,67 -6,101 -3,33 -5,67 -10,100 -1,17 -3,34 -5,50 -2,17 -4,34 -6,51 -3,16 -5,33 -8,49l-5 25c-1,8 -3,16 -5,24 -2,8 -3,17 -5,25l-7 24c-4,16 -10,32 -15,47 -2,4 -3,8 -4,12l-5 12 -9 21c-3,6 -7,13 -10,20 -5,9 -10,19 -14,28l9 5 16 -21 7 -10c3,-4 5,-8 7,-11l14 -23 6 -11c2,-4 4,-8 6,-12 7,-15 15,-31 21,-47l10 -25c3,-8 5,-16 8,-24 3,-9 6,-17 8,-25l7 -25c5,-17 8,-34 12,-51 4,-17 7,-33 11,-50 3,-17 5,-34 8,-51 6,-34 10,-68 15,-102 2,-17 3,-34 5,-51 2,-17 4,-34 5,-51 2,-34 5,-69 5,-103 1,-17 1,-34 2,-52l0 -51c0,-17 -1,-34 -1,-52z"/>
  <path class="fil0" d="M25451 9077c0,-14 -1,-32 -3,-52 -1,-20 -3,-43 -5,-68 -3,-25 -6,-52 -9,-81 -1,-14 -3,-28 -6,-43 -2,-15 -5,-30 -7,-46 -6,-30 -11,-62 -17,-94 -6,-33 -13,-65 -20,-98 -8,-32 -16,-65 -24,-96 -8,-32 -17,-63 -25,-94 -5,-15 -9,-29 -13,-44 -4,-14 -8,-28 -13,-42 -10,-27 -19,-52 -27,-76 -17,-47 -33,-86 -44,-113 -5,-13 -10,-24 -13,-31 -3,-7 -5,-11 -5,-11 0,0 0,4 1,12 1,8 3,19 5,34 4,29 11,70 21,119 5,24 10,51 16,79 2,7 3,14 5,21 1,7 3,14 4,22 3,14 6,29 9,44 6,31 13,62 20,94 7,31 14,64 22,96 7,32 14,64 21,96 7,32 15,63 22,93 4,15 7,30 11,44 2,8 4,15 6,22 1,7 3,14 5,21 6,28 13,54 19,78 6,24 12,46 17,66 6,19 11,36 15,50 4,14 8,25 10,33 3,7 4,11 4,11 0,0 0,-4 0,-12 -1,-8 -1,-19 -2,-34z"/>
  <path class="fil0" d="M25541 9833c-2,-27 -4,-54 -6,-80 -3,-26 -5,-51 -8,-75 -3,-24 -6,-46 -9,-67 -7,-41 -13,-75 -18,-99 -3,-12 -5,-22 -7,-28 -1,-7 -2,-10 -2,-10 0,0 0,4 -1,10 -1,7 -2,16 -3,28 -2,25 -4,60 -6,102 0,20 -1,43 -1,67 0,24 -1,49 -1,75 0,26 0,53 1,80 0,13 0,27 1,41 1,14 1,27 1,41 1,28 2,56 3,83 1,27 3,54 4,80 2,26 4,51 5,74 2,24 4,47 6,67 2,21 4,40 6,57 2,17 5,32 6,44l1 2 0 2 0 4 -1 5 -3 3 -2 -1 -1 -5 2 -1 -2 0c-2,1 -3,4 -2,8 1,1 2,4 6,5l8 -4 5 -9 1 -4 0 -3 1 -2c2,-12 4,-27 6,-44 2,-17 4,-36 5,-57 2,-21 4,-43 6,-67 1,-24 3,-49 3,-75 1,-26 1,-53 1,-81 0,-27 -1,-55 -1,-83 -1,-27 -3,-55 -4,-83z"/>
  <path class="fil0" d="M25040 9472c-1,-10 -3,-20 -5,-32 -1,-12 -2,-25 -4,-38 -2,-14 -4,-28 -5,-43 -2,-15 -4,-31 -5,-48 -2,-16 -4,-33 -5,-51 -2,-18 -3,-37 -5,-56 -1,-9 -2,-19 -2,-29 -1,-9 -1,-19 -2,-29 -1,-20 -3,-41 -4,-61 -1,-21 -2,-42 -3,-64 0,-10 -1,-21 -1,-32 0,-11 -1,-22 -1,-33 -2,-43 -2,-88 -3,-132 0,-44 0,-89 0,-133 0,-43 1,-87 1,-128 1,-42 1,-82 2,-121 0,-38 0,-74 0,-108 1,-34 0,-64 0,-92 0,-27 0,-51 -1,-70 0,-20 0,-35 -1,-46 0,-10 0,-16 0,-16 0,0 -1,5 -3,16 -2,10 -5,25 -8,45 -3,19 -7,43 -11,70 -2,13 -4,28 -6,43 -2,15 -4,31 -6,48 -2,17 -4,34 -6,52 -2,18 -4,37 -6,56 -3,38 -6,79 -9,121 -3,42 -6,85 -7,129 -1,45 -1,90 -1,135 1,45 1,90 4,134 2,44 7,88 11,130 2,21 5,42 7,62 3,20 6,40 9,59 3,19 7,37 10,55 3,18 8,36 11,52 4,17 7,32 11,47 4,15 8,29 11,43 4,13 7,25 11,37 3,11 7,21 10,31 6,18 11,33 15,43 3,10 5,15 5,15 0,0 0,-5 -2,-16 -1,-10 -3,-26 -6,-45z"/>
  <path class="fil0" d="M25271 10220c-3,-7 -5,-14 -8,-21 -2,-7 -5,-14 -7,-22 -5,-15 -11,-31 -16,-48 -6,-16 -13,-33 -19,-50 -2,-4 -4,-8 -5,-13l-5 -13c-3,-8 -6,-17 -9,-25 -7,-18 -13,-35 -20,-52 -4,-8 -7,-16 -11,-25 -3,-8 -6,-16 -9,-25 -13,-33 -25,-63 -37,-89 -2,-3 -4,-6 -5,-9l-4 -9c-2,-5 -4,-11 -6,-16 -4,-10 -7,-19 -8,-27l0 -5 -1 -5 0 -4 1 -4c0,-5 1,-7 1,-7 0,0 -2,2 -4,6l-3 3 -2 4 -2 5 -2 6c-3,9 -4,20 -4,32 0,6 0,13 1,20 0,3 1,6 1,10 1,4 1,7 2,11 4,28 11,60 19,94 3,17 9,35 15,53 6,18 12,36 19,54 3,9 7,18 10,27 2,4 3,9 5,13 2,4 4,9 6,13 8,17 16,33 24,49 9,16 17,31 25,46 8,14 17,26 25,38 16,24 31,43 41,56 11,13 18,20 18,20 0,0 -2,-9 -6,-26 -5,-16 -11,-39 -20,-65z"/>
  <path class="fil0" d="M24517 8980c1,12 3,22 4,29 2,6 2,10 2,10 0,0 1,-4 2,-10 1,-7 3,-17 4,-30 2,-12 4,-27 5,-45 1,-9 2,-18 3,-28 2,-9 3,-20 4,-30 3,-22 6,-45 9,-69 1,-6 1,-12 2,-19 1,-6 2,-12 3,-18 2,-13 4,-26 6,-39 2,-14 4,-27 5,-41 2,-13 5,-27 7,-41 5,-27 10,-55 14,-83 6,-28 12,-56 17,-83 2,-14 4,-28 8,-41 3,-13 6,-27 9,-40 3,-13 5,-25 8,-38 1,-6 3,-13 4,-19 1,-6 3,-12 4,-18 6,-23 12,-46 17,-67 2,-10 4,-20 6,-30 3,-10 6,-19 8,-27 4,-17 8,-32 11,-45 3,-12 5,-22 6,-29 2,-6 2,-10 2,-10 0,0 -1,3 -5,9 -3,6 -9,15 -15,26 -6,11 -13,25 -22,40 -4,8 -8,16 -13,25 -4,9 -8,19 -12,29 -9,20 -18,42 -28,66 -2,5 -4,11 -7,17 -2,7 -4,13 -6,19 -4,12 -8,25 -12,38 -8,27 -17,53 -23,82 -6,28 -13,56 -19,85 -4,29 -8,58 -12,86 -5,28 -6,57 -7,84 -1,14 -2,27 -3,40 0,7 0,13 0,20 0,6 0,13 0,19 0,25 1,49 2,71 1,10 1,21 2,31 1,10 2,19 3,28 2,18 5,33 7,46z"/>
  <path class="fil0" d="M24707 10280c-3,-14 -6,-32 -10,-51 -2,-10 -5,-21 -7,-32 -2,-11 -5,-23 -7,-35 -5,-24 -11,-50 -17,-78 -1,-7 -3,-14 -5,-21 -1,-7 -2,-14 -4,-22 -3,-14 -6,-29 -9,-44 -3,-15 -6,-31 -10,-46 -3,-16 -6,-32 -9,-47 -6,-32 -13,-64 -20,-97 -5,-32 -11,-64 -17,-96 -3,-16 -7,-32 -9,-47 -3,-16 -6,-31 -8,-47 -3,-15 -6,-30 -9,-44 -1,-8 -2,-15 -4,-22 -1,-7 -2,-14 -3,-21 -5,-28 -10,-54 -14,-79 -2,-12 -4,-24 -7,-35 -1,-11 -3,-22 -5,-32 -3,-20 -7,-37 -9,-51 -3,-15 -6,-26 -7,-34 -2,-7 -3,-11 -3,-11 0,0 0,4 -1,12 0,7 -1,19 -2,33 0,15 -1,33 -2,53 0,10 0,21 -1,32 0,12 1,24 1,36 1,25 2,52 3,81 0,15 2,29 3,44 1,15 3,30 5,46 3,31 6,63 12,96 5,32 10,65 16,98 7,33 14,65 21,97 7,33 17,64 25,94 5,15 9,30 13,44 4,15 9,29 14,42 9,27 18,53 27,76 4,12 8,23 13,34 4,10 9,20 13,30 8,18 15,35 21,48 6,13 12,23 15,31 3,7 5,10 5,10 0,0 0,-4 -2,-12 -1,-7 -3,-19 -6,-33z"/>
  <path class="fil0" d="M24243 8216c-10,4 -23,14 -36,29 -14,14 -31,31 -48,53 -19,21 -37,46 -56,75 -9,14 -19,29 -29,45 -4,8 -9,16 -13,25 -5,8 -10,17 -14,25 -17,36 -35,73 -49,113 -4,10 -8,20 -12,31 -3,10 -7,20 -10,31 -7,21 -13,42 -20,63 -5,22 -11,44 -16,66 -5,22 -11,44 -15,66 -4,22 -8,44 -12,67 -4,22 -7,44 -10,66 -7,44 -12,87 -16,129 -2,21 -4,42 -5,62 -2,20 -2,40 -3,60 -2,39 -2,75 0,109 0,34 4,65 6,93 4,27 8,51 11,70 5,20 9,35 11,45 2,10 4,16 4,16 0,0 0,-6 -1,-17 0,-10 0,-26 -1,-45 0,-20 0,-43 0,-70 1,-14 2,-28 3,-43 0,-15 1,-31 3,-48 1,-16 2,-34 4,-51 3,-18 4,-37 7,-55 2,-19 5,-39 7,-59 3,-19 6,-39 9,-60 4,-21 7,-42 10,-63 4,-21 7,-42 11,-64 4,-21 7,-43 11,-65 4,-22 8,-43 13,-65 4,-22 9,-43 13,-65 5,-21 10,-42 15,-63 6,-21 11,-42 17,-63 3,-10 6,-20 9,-30 3,-10 6,-20 9,-30 12,-39 26,-76 40,-111 7,-18 15,-34 22,-51 7,-16 15,-31 22,-46 15,-30 30,-57 44,-79 3,-6 7,-12 10,-17 3,-5 7,-10 10,-15 7,-10 13,-19 18,-28 11,-16 21,-27 29,-33 4,-4 7,-6 10,-7l4 -1 -4 0c-3,1 -7,2 -12,5z"/>
  <path class="fil0" d="M24129 10605l-3 -2 -2 1 0 1 2 -1 1 5 -1 1 0 0 0 0 -2 -1 -1 -1 -1 -5 -1 -4 0 -4c0,-11 0,-26 0,-42 -1,-17 -3,-35 -5,-56 -3,-20 -7,-42 -12,-64 -6,-23 -11,-47 -19,-71 -3,-12 -7,-24 -11,-37 -4,-12 -8,-24 -12,-37 -9,-25 -18,-49 -27,-74 -10,-25 -19,-50 -28,-74 -5,-12 -9,-24 -14,-36 -4,-12 -8,-23 -12,-35 -2,-6 -4,-11 -6,-17 -2,-6 -4,-11 -6,-17 -3,-11 -7,-22 -10,-33 -3,-10 -6,-21 -9,-31 -1,-5 -3,-10 -4,-15 -1,-5 -3,-10 -4,-14 -2,-10 -4,-19 -6,-28 -3,-8 -3,-17 -5,-24 -3,-16 -6,-30 -7,-42 -2,-11 -3,-20 -4,-27 -1,-6 -2,-9 -2,-9 0,0 0,3 -2,9 -1,7 -3,16 -5,27 -1,6 -2,12 -3,19 0,8 -1,15 -1,24 -1,8 -2,17 -2,26 1,10 1,19 1,30 1,20 4,42 7,66 2,11 4,23 7,35 1,6 2,12 3,18 2,6 3,12 5,19 6,24 13,49 21,75 8,25 17,50 27,75 9,25 19,50 28,74 10,24 20,48 29,71 9,23 17,45 25,66 5,10 8,21 12,31 3,10 7,19 10,29 3,9 6,18 9,26 3,9 6,17 8,25 4,15 8,29 12,40l1 4 2 5 6 7 4 2 4 0 2 0 2 -2 1 -4 -2 -4z"/>
  <path class="fil0" d="M23595 8444c-5,6 -12,13 -19,22 -4,4 -7,8 -11,13 -4,5 -8,10 -12,16 -8,11 -16,23 -25,37 -4,6 -8,13 -12,21 -4,7 -8,14 -12,22 -8,15 -16,31 -23,48 -7,16 -13,33 -20,50 -5,18 -10,35 -15,52 -5,18 -8,35 -11,52 -1,8 -3,17 -4,25 -1,8 -3,16 -3,24 -1,15 -2,30 -3,44 0,6 0,13 0,19 0,6 0,12 0,18 1,11 2,21 3,29 1,16 3,25 3,25 0,0 4,-9 9,-24 3,-7 6,-16 10,-27 1,-5 3,-10 5,-16 2,-6 4,-12 6,-18 4,-13 9,-27 13,-41 1,-4 2,-7 4,-11 1,-4 2,-7 3,-11 3,-7 5,-15 8,-23 3,-8 5,-16 8,-24 2,-8 5,-16 8,-24 5,-16 11,-32 16,-49 6,-16 12,-33 17,-49 3,-8 5,-16 8,-24 3,-8 6,-16 9,-23 3,-8 5,-16 8,-23 1,-4 2,-8 3,-11 2,-4 3,-7 4,-11 6,-14 11,-27 15,-40 2,-6 4,-12 6,-18 2,-6 4,-11 6,-17 4,-10 7,-19 9,-27 5,-15 7,-24 7,-24 0,0 -7,6 -18,18z"/>
  <path class="fil0" d="M23537 10827c-8,-20 -16,-46 -27,-75 -2,-7 -5,-15 -8,-23 -2,-7 -5,-15 -8,-24 -5,-16 -11,-33 -17,-51 -6,-18 -11,-37 -17,-56 -6,-20 -13,-39 -18,-60 -6,-21 -12,-42 -18,-64 -5,-22 -10,-44 -15,-67 -3,-12 -5,-23 -7,-35 -2,-11 -4,-23 -6,-34 -1,-6 -3,-12 -4,-18 -1,-6 -2,-11 -2,-18 -2,-12 -4,-24 -5,-37 -2,-12 -3,-24 -5,-37l-1 -4 0 0 0 -1 0 -1 0 -2 0 -9 -2 -19c0,-12 -1,-24 -2,-37 -1,-12 -2,-24 -2,-37 0,-25 -1,-50 -1,-74 0,-25 0,-50 1,-75 0,-49 2,-99 3,-146 1,-47 1,-93 2,-136 0,-44 0,-85 0,-123 0,-38 -1,-73 -1,-104 -1,-31 -2,-58 -2,-80 -1,-22 -2,-39 -2,-51 -1,-12 -1,-19 -1,-19 0,0 -1,7 -3,19 -1,11 -4,29 -7,51 -2,22 -6,48 -9,79 -4,31 -7,66 -11,103 -4,38 -8,79 -11,123 -4,43 -7,89 -11,136 -2,24 -3,48 -4,72 -1,12 -2,25 -3,37 -1,12 -1,25 -1,37 -1,13 -1,26 -2,38 0,13 -1,26 0,38 0,26 0,52 0,77 0,13 2,26 3,39 0,13 1,26 2,38l2 20 1 9 0 6 1 5c2,12 4,24 5,37 2,12 4,24 6,36 1,7 2,13 4,19 1,6 2,12 4,18 2,13 5,25 8,37 2,12 5,24 9,36 6,23 13,46 20,68 7,22 14,43 22,64 7,21 15,41 23,60 8,19 15,37 23,55 16,35 31,67 45,94 14,28 26,52 37,71 11,20 20,35 26,45 6,11 9,16 9,16 0,0 -2,-6 -6,-17 -4,-11 -9,-28 -17,-49z"/>
  <path class="fil0" d="M22832 9053c-3,9 -8,19 -12,30 -4,11 -8,24 -12,37 -5,13 -9,27 -14,41 -5,15 -9,31 -13,47 -5,16 -10,33 -14,51 -4,18 -9,36 -13,55 -2,10 -4,19 -6,29 -2,10 -4,20 -5,30 -4,20 -8,41 -11,62 -5,42 -11,85 -14,130 -4,44 -5,90 -7,135 1,45 1,91 4,135 2,45 7,89 12,131 3,21 6,41 9,62 2,10 3,20 5,30 1,9 3,19 5,29 4,19 8,37 12,55 4,18 9,35 13,51 4,17 8,33 12,47 4,15 9,29 13,42 4,13 8,26 12,37 4,11 8,21 11,31 7,18 13,33 16,42 4,10 6,16 6,16 0,0 0,-6 -2,-17 -2,-10 -4,-25 -8,-44 -2,-10 -4,-21 -6,-32 -1,-12 -3,-25 -6,-38 -2,-14 -4,-28 -6,-43 -3,-15 -5,-31 -7,-47 -2,-17 -5,-34 -7,-52 -2,-18 -4,-36 -6,-55 -1,-10 -2,-19 -3,-29 -1,-10 -2,-20 -3,-30 -1,-20 -3,-40 -5,-61 -1,-20 -2,-41 -3,-63 -2,-21 -2,-43 -3,-64 -2,-44 -1,-88 -2,-132 1,-44 2,-89 5,-132 1,-22 1,-44 3,-65 2,-21 4,-42 5,-63 2,-20 5,-41 7,-61 1,-10 2,-19 3,-29 1,-10 2,-19 4,-29 2,-19 4,-37 7,-55 2,-18 5,-35 8,-51 2,-17 5,-33 7,-48 3,-15 5,-29 8,-42 2,-14 5,-26 7,-38 2,-12 4,-22 6,-32 4,-19 7,-34 9,-45 2,-10 3,-16 3,-16 0,0 -2,6 -7,15 -4,10 -10,24 -17,43z"/>
  <path class="fil0" d="M23034 10800c-1,-6 -2,-13 -4,-20 -3,-7 -4,-15 -6,-22 -2,-8 -5,-15 -8,-23 -2,-8 -5,-15 -9,-23 -3,-7 -6,-15 -9,-22 -3,-8 -7,-15 -11,-22 -3,-7 -7,-13 -11,-19 -3,-7 -7,-13 -10,-19 -8,-11 -15,-21 -20,-27 -6,-6 -9,-10 -9,-10 0,0 -2,5 -3,13 -2,9 -3,20 -3,33 -1,7 -1,14 0,22 0,7 2,15 3,24 2,8 4,16 7,25 2,8 5,17 8,25 3,8 7,16 11,24 5,8 9,15 13,22 5,7 9,14 14,20 5,6 11,11 15,16 10,10 19,17 26,22 7,5 11,7 11,7 0,0 0,-5 0,-13 -1,-8 -2,-20 -5,-33z"/>
  <path class="fil0" d="M27693 9934c-1,-18 -2,-38 -3,-58 -1,-10 -1,-20 -2,-30 -1,-11 -2,-21 -3,-31 -2,-21 -5,-43 -8,-64 -7,-44 -13,-88 -24,-133 -8,-45 -22,-90 -34,-135 -15,-45 -29,-89 -47,-132 -16,-43 -36,-84 -54,-124 -10,-19 -20,-38 -30,-57 -5,-9 -10,-19 -14,-28 -5,-9 -11,-17 -16,-26 -10,-17 -20,-34 -30,-50 -10,-16 -21,-31 -31,-45 -10,-15 -19,-29 -28,-42 -10,-12 -19,-24 -28,-36 -9,-11 -17,-21 -25,-31 -7,-9 -15,-18 -22,-25 -13,-16 -24,-27 -31,-35 -7,-8 -11,-13 -11,-13 0,0 3,5 8,15 6,9 14,23 24,40 6,9 12,18 18,29 6,10 12,22 19,34 7,12 15,25 22,38 8,14 16,29 24,44 8,15 16,31 24,47 9,17 17,34 25,52 5,9 9,17 14,27 4,9 8,18 12,27 8,19 17,38 25,58 8,20 17,40 25,60 8,20 15,41 23,62 16,42 29,86 44,129 12,43 25,87 35,130 3,11 5,22 8,33 3,10 5,21 7,32 5,21 9,43 14,63 4,21 7,42 10,62 2,10 4,21 6,30 1,10 2,20 4,30 2,19 5,38 8,56 2,19 3,36 5,53 2,18 4,34 5,49 2,16 3,31 4,45 1,14 1,27 2,39 1,12 1,23 2,33 1,20 2,36 2,47 1,11 1,17 1,17 0,0 1,-6 3,-17 1,-10 4,-26 6,-46 2,-10 4,-22 5,-34 1,-12 1,-25 2,-39 1,-14 3,-29 4,-45 0,-16 0,-33 0,-50 0,-18 1,-36 1,-55z"/>
  <path class="fil1" d="M25778 12911l-801 0c-231,0 -433,-112 -557,-283 73,24 151,36 230,36l801 0c216,0 423,-92 566,-253 141,-159 208,-371 184,-581l-2 -8 -230 -1001c29,25 58,48 88,71 42,30 85,58 130,83l271 1180c47,402 -271,756 -680,756zm-327 -387l-801 0c-119,0 -233,-34 -329,-95 -27,-86 -36,-179 -25,-274l305 -1225 1 0 -2 -2c-14,8 -26,14 -34,18 -101,128 -231,233 -379,307l148 -594c124,-60 399,-170 732,-170 226,0 479,51 729,203l266 1158c19,169 -36,339 -150,467 -116,131 -285,207 -461,207zm1633 -1157c-247,0 -475,-80 -659,-215 -42,-31 -81,-64 -118,-101 -22,-17 -44,-33 -66,-48 159,77 335,118 516,118 649,0 1177,-523 1177,-1166 0,-22 -1,-43 -2,-65 1,-22 2,-45 2,-67 0,-177 -40,-348 -114,-502 228,201 371,493 371,819 0,22 -1,45 -2,67 1,21 2,43 2,65 0,605 -496,1095 -1107,1095zm-3390 0c-321,0 -609,-134 -811,-350 147,67 311,104 484,104 293,0 568,-106 782,-295l-122 491c-105,33 -217,50 -333,50zm3063 -387c-224,0 -437,-69 -617,-201 -39,-29 -76,-61 -111,-95l-6 -5c-34,-27 -69,-51 -103,-74l-2 -8 -8 2c-288,-189 -581,-251 -841,-251 -451,0 -804,186 -865,220 -8,5 -15,11 -20,18 -198,251 -496,394 -817,394 -260,0 -497,-95 -679,-251 -65,-139 -101,-294 -101,-457 0,-23 1,-45 2,-66 -1,-22 -2,-44 -2,-66 0,-184 46,-358 127,-510 -1,23 -2,47 -3,70 1,45 1,91 4,135 2,45 7,89 12,131 3,21 6,41 9,62 2,10 3,20 5,30 1,9 3,19 5,29 4,19 8,37 12,55 4,18 9,35 13,51 4,17 8,33 12,47 4,15 9,29 13,42 4,13 8,26 12,37 4,11 8,21 11,31 7,18 13,33 16,42 4,10 6,16 6,16 0,0 0,-6 -2,-17 -2,-10 -4,-25 -8,-44 -2,-10 -4,-21 -6,-32 -1,-12 -3,-25 -6,-38 -2,-14 -4,-28 -6,-43 -3,-15 -5,-31 -7,-47 -2,-17 -5,-34 -7,-52 -2,-18 -4,-36 -6,-55 -1,-10 -2,-19 -3,-29 -1,-10 -2,-20 -3,-30 -1,-20 -3,-40 -5,-61 -1,-20 -2,-41 -3,-63 -2,-21 -2,-43 -3,-64 -2,-44 -1,-88 -2,-132 1,-44 2,-89 5,-132 1,-17 1,-33 2,-49 84,-121 191,-224 315,-303 296,-203 581,-363 854,-485 -4,13 -7,26 -10,40 -5,22 -11,44 -15,66 -4,22 -8,44 -12,67 -4,22 -7,44 -10,66 -7,44 -12,87 -16,129 -2,21 -4,42 -5,62 -2,20 -2,40 -3,60 -2,39 -2,75 0,109 0,34 4,65 6,93 4,27 8,51 11,70 5,20 9,35 11,45 2,10 4,16 4,16 0,0 0,-6 -1,-17 0,-10 0,-26 -1,-45 0,-20 0,-43 0,-70 1,-14 2,-28 3,-43 0,-15 1,-31 3,-48 1,-16 2,-34 4,-51 3,-18 4,-37 7,-55 2,-19 5,-39 7,-59 3,-19 6,-39 9,-60 4,-21 7,-42 10,-63 4,-21 7,-42 11,-64 4,-21 7,-43 11,-65 4,-22 8,-43 13,-65 4,-22 9,-43 13,-65 5,-21 10,-42 15,-63 2,-7 4,-14 6,-21 176,-76 347,-136 512,-183 -2,12 -5,25 -8,37 -4,29 -8,58 -12,86 -5,28 -6,57 -7,84 -1,14 -2,27 -3,40 0,7 0,13 0,20 0,6 0,13 0,19 0,25 1,49 2,71 1,10 1,21 2,31 1,10 2,19 3,28 2,18 5,33 7,46 1,12 3,22 4,29 2,6 2,10 2,10 0,0 1,-4 2,-10 1,-7 3,-17 4,-30 2,-12 4,-27 5,-45 1,-9 2,-18 3,-28 2,-9 3,-20 4,-30 3,-22 6,-45 9,-69 1,-6 1,-12 2,-19 1,-6 2,-12 3,-18 2,-13 4,-26 6,-39 2,-14 4,-27 5,-41 2,-13 5,-27 7,-41 5,-27 10,-55 14,-83 5,-22 9,-44 13,-66 120,-32 238,-57 352,-75 0,5 -1,10 -2,15 -3,38 -6,79 -9,121 -3,42 -6,85 -7,129 -1,45 -1,90 -1,135 1,45 1,90 4,134 2,44 7,88 11,130 2,21 5,42 7,62 3,20 6,40 9,59 3,19 7,37 10,55 3,18 8,36 11,52 4,17 7,32 11,47 4,15 8,29 11,43 4,13 7,25 11,37 3,11 7,21 10,31 6,18 11,33 15,43 3,10 5,15 5,15 0,0 0,-5 -2,-16 -1,-10 -3,-26 -6,-45 -1,-10 -3,-20 -5,-32 -1,-12 -2,-25 -4,-38 -2,-14 -4,-28 -5,-43 -2,-15 -4,-31 -5,-48 -2,-16 -4,-33 -5,-51 -2,-18 -3,-37 -5,-56 -1,-9 -2,-19 -2,-29 -1,-9 -1,-19 -2,-29 -1,-20 -3,-41 -4,-61 -1,-21 -2,-42 -3,-64 0,-10 -1,-21 -1,-32 0,-11 -1,-22 -1,-33 -2,-43 -2,-88 -3,-132 0,-44 0,-89 0,-133 0,-43 1,-87 1,-128 1,-42 1,-82 2,-121 0,-8 0,-16 0,-24 94,-14 186,-24 276,-30 3,10 5,21 7,31 6,31 13,62 20,94 7,31 14,64 22,96 7,32 14,64 21,96 7,32 15,63 22,93 4,15 7,30 11,44 2,8 4,15 6,22 1,7 3,14 5,21 6,28 13,54 19,78 6,24 12,46 17,66 6,19 11,36 15,50 4,14 8,25 10,33 3,7 4,11 4,11 0,0 0,-4 0,-12 -1,-8 -1,-19 -2,-34 0,-14 -1,-32 -3,-52 -1,-20 -3,-43 -5,-68 -3,-25 -6,-52 -9,-81 -1,-14 -3,-28 -6,-43 -2,-15 -5,-30 -7,-46 -6,-30 -11,-62 -17,-94 -6,-33 -13,-65 -20,-98 -8,-32 -16,-65 -24,-96 -8,-32 -17,-63 -25,-94 -2,-7 -4,-14 -6,-20 57,-3 113,-5 168,-5 3,0 6,0 9,0 3,4 5,8 7,12 4,7 8,13 12,20 4,6 7,13 11,19 4,6 8,12 11,18 7,12 14,23 21,34 3,5 7,10 10,15 3,4 5,9 8,13 6,9 11,16 15,22 8,12 14,19 14,19 0,0 -1,-8 -2,-23 -1,-7 -3,-16 -4,-26 -1,-6 -2,-11 -3,-17 -1,-5 -3,-11 -4,-17 -4,-12 -7,-25 -12,-39 -4,-14 -10,-28 -16,-43 0,-2 -1,-4 -2,-6 128,3 250,14 368,30 14,18 28,36 42,54 6,8 11,15 16,22l9 11 7 12 15 23 7 11 1 1 0 1 2 3 3 6 14 25 7 13c2,4 3,8 5,12 4,8 8,17 12,25 3,8 7,16 10,24 8,17 15,34 21,51 7,17 14,33 20,50 14,33 27,65 39,95 13,30 25,58 37,84 11,27 22,50 32,71 10,22 19,40 26,55 7,15 13,27 17,35 5,8 7,12 7,12 0,0 -1,-5 -3,-14 -2,-8 -5,-21 -9,-37 -4,-16 -9,-36 -15,-59 -6,-22 -13,-47 -21,-75 -8,-27 -17,-57 -26,-88 -10,-31 -20,-64 -31,-98 -11,-34 -23,-69 -37,-104 -3,-9 -7,-18 -11,-27 -4,-9 -8,-19 -12,-28 -2,-4 -4,-9 -6,-13l-7 -13 -13 -25c-21,-35 -43,-67 -67,-97 -2,-2 -3,-3 -4,-5 106,18 207,40 303,66 2,3 3,7 5,10 4,8 8,16 11,24 4,9 8,17 12,26 15,35 31,72 46,110 8,19 16,39 23,59 8,20 16,40 24,60 15,41 31,83 47,124 16,42 33,83 49,124 16,41 33,81 49,119 16,39 32,76 47,111 16,35 31,68 45,99 13,30 27,58 38,83 12,24 22,46 31,63 9,18 16,31 21,41 4,9 7,14 7,14 0,0 -1,-5 -4,-16 -3,-10 -7,-25 -12,-43 -6,-19 -12,-42 -20,-68 -8,-26 -17,-55 -28,-87 -10,-32 -21,-67 -33,-103 -13,-36 -26,-74 -40,-114 -14,-39 -29,-80 -44,-121 -15,-41 -31,-82 -47,-124 -16,-42 -33,-83 -50,-124 -16,-41 -34,-81 -52,-119 -18,-38 -36,-75 -55,-109 -4,-8 -9,-16 -13,-23 102,29 199,62 289,98 3,5 6,11 9,16 10,15 19,31 29,47 9,17 20,33 30,49 10,17 19,33 30,49 10,16 20,32 29,47 10,15 20,29 28,43 9,14 18,27 26,39 9,12 17,23 23,33 7,10 13,18 19,25 10,14 17,22 17,22 0,0 -2,-10 -6,-27 -2,-8 -5,-19 -8,-30 -1,-6 -3,-12 -5,-19 -2,-6 -5,-13 -7,-20 -5,-13 -10,-28 -17,-44 -6,-16 -13,-32 -21,-49 -8,-16 -16,-34 -26,-50 -9,-17 -19,-34 -29,-51 -9,-14 -17,-28 -27,-41 147,63 275,131 385,197 48,40 73,64 74,65 5,5 11,10 17,13 27,14 54,30 80,47 6,10 11,20 17,30 8,14 16,29 24,44 8,15 16,31 24,47 9,17 17,34 25,52 5,9 9,17 14,27 4,9 8,18 12,27 8,19 17,38 25,58 8,20 17,40 25,60 8,20 15,41 23,62 16,42 29,86 44,129 12,43 25,87 35,130 3,11 5,22 8,33 3,10 5,21 7,32 5,21 9,43 14,63 4,21 7,42 10,62 2,10 4,21 6,30 1,10 2,20 4,30 2,19 5,38 8,56 2,19 3,36 5,53 2,18 4,34 5,49 2,16 3,31 4,45 1,14 1,27 2,39 1,12 1,23 2,33 1,20 2,36 2,47 1,11 1,17 1,17 0,0 1,-6 3,-17 1,-10 4,-26 6,-46 2,-10 4,-22 5,-34 1,-12 1,-25 2,-39 1,-14 3,-29 4,-45 0,-16 0,-33 0,-50 0,-18 1,-36 1,-55 -1,-18 -2,-38 -3,-58 -1,-10 -1,-20 -2,-30 -1,-11 -2,-21 -3,-31 -2,-21 -5,-43 -8,-64 -7,-44 -13,-88 -24,-133 -8,-45 -22,-90 -34,-135 -15,-45 -29,-89 -47,-132 -16,-43 -36,-84 -54,-124 -10,-19 -20,-38 -30,-57 -5,-9 -10,-19 -14,-28 -5,-9 -11,-17 -16,-26 -10,-17 -20,-34 -30,-50 -10,-16 -21,-31 -31,-45 -2,-4 -4,-7 -7,-11 253,193 404,491 404,813 0,21 -1,42 -2,63l0 8c1,20 2,40 2,61 0,565 -465,1025 -1037,1025zm67 -322l0 0 -1 5 -2 10 -4 19c-2,6 -3,12 -5,18 -2,6 -3,12 -5,18l-6 18c-4,12 -9,24 -14,36 -10,24 -21,48 -32,72l-17 36c-6,12 -12,24 -18,36l0 0 -9 20 14 -18c17,-20 32,-42 48,-63 15,-22 31,-45 44,-68 6,-12 13,-24 19,-36l9 -18c3,-7 6,-13 8,-20 3,-6 5,-13 8,-19l6 -19 3 -10 1 -5 0 0 1 -1 0 -1 0 -1 1 -3 4 -20 4 -20c2,-7 2,-14 3,-21 1,-13 4,-27 4,-40 1,-14 2,-28 2,-41l2 -40 1 -79c0,-26 0,-53 0,-79 -1,-27 -1,-53 -2,-80 -1,-26 -1,-53 -3,-79 -2,-27 -3,-53 -5,-80 -3,-26 -6,-53 -8,-79 -2,-13 -3,-27 -6,-40 -2,-13 -4,-26 -6,-39l-6 -40c-3,-13 -5,-26 -8,-39l-9 -39 -4 -20c-2,-6 -4,-12 -6,-19 -7,-25 -14,-51 -23,-76 2,27 4,53 7,79l1 20 2 20 2 39c1,13 2,26 3,39l1 40c1,26 3,52 3,78l2 79c0,26 0,52 1,79 0,26 0,52 0,78l1 40 0 39 0 79 1 79 1 39 0 39c0,13 -1,25 -2,38 0,7 0,13 -1,19l-2 19 -2 19 -1 2 0 1 0 1 0 -1zm-3452 -1348c0,0 -1,7 -3,19 -1,11 -4,29 -7,51 -2,22 -6,48 -9,79 -4,31 -7,66 -11,103 -4,38 -8,79 -11,123 -4,43 -7,89 -11,136 -2,24 -3,48 -4,72 -1,12 -2,25 -3,37 -1,12 -1,25 -1,37 -1,13 -1,26 -2,38 0,13 -1,26 0,38 0,26 0,52 0,77 0,13 2,26 3,39 0,13 1,26 2,38l2 20 1 9 0 6 1 5c2,12 4,24 5,37 2,12 4,24 6,36 1,7 2,13 4,19 1,6 2,12 4,18 2,13 5,25 8,37 2,12 5,24 9,36 6,23 13,46 20,68 7,22 14,43 22,64 7,21 15,41 23,60 8,19 15,37 23,55 16,35 31,67 45,94 14,28 26,52 37,71 11,20 20,35 26,45 6,11 9,16 9,16 0,0 -2,-6 -6,-17 -4,-11 -9,-28 -17,-49 -8,-20 -16,-46 -27,-75 -2,-7 -5,-15 -8,-23 -2,-7 -5,-15 -8,-24 -5,-16 -11,-33 -17,-51 -6,-18 -11,-37 -17,-56 -6,-20 -13,-39 -18,-60 -6,-21 -12,-42 -18,-64 -5,-22 -10,-44 -15,-67 -3,-12 -5,-23 -7,-35 -2,-11 -4,-23 -6,-34 -1,-6 -3,-12 -4,-18 -1,-6 -2,-11 -2,-18 -2,-12 -4,-24 -5,-37 -2,-12 -3,-24 -5,-37l-1 -4 0 0 0 -1 0 -1 0 -2 0 -9 -2 -19c0,-12 -1,-24 -2,-37 -1,-12 -2,-24 -2,-37 0,-25 -1,-50 -1,-74 0,-25 0,-50 1,-75 0,-49 2,-99 3,-146 1,-47 1,-93 2,-136 0,-44 0,-85 0,-123 0,-38 -1,-73 -1,-104 -1,-31 -2,-58 -2,-80 -1,-22 -2,-39 -2,-51 -1,-12 -1,-19 -1,-19zm-435 1283c0,0 -2,5 -3,13 -2,9 -3,20 -3,33 -1,7 -1,14 0,22 0,7 2,15 3,24 2,8 4,16 7,25 2,8 5,17 8,25 3,8 7,16 11,24 5,8 9,15 13,22 5,7 9,14 14,20 5,6 11,11 15,16 10,10 19,17 26,22 7,5 11,7 11,7 0,0 0,-5 0,-13 -1,-8 -2,-20 -5,-33 -1,-6 -2,-13 -4,-20 -3,-7 -4,-15 -6,-22 -2,-8 -5,-15 -8,-23 -2,-8 -5,-15 -9,-23 -3,-7 -6,-15 -9,-22 -3,-8 -7,-15 -11,-22 -3,-7 -7,-13 -11,-19 -3,-7 -7,-13 -10,-19 -8,-11 -15,-21 -20,-27 -6,-6 -9,-10 -9,-10zm4072 -1398c0,0 3,6 8,18 2,5 5,12 9,21 4,8 7,18 11,28 3,6 5,11 7,17 2,6 5,13 7,19 4,13 10,27 15,43 2,7 5,15 7,23 3,8 5,17 7,25 6,18 11,36 16,55 19,76 36,166 51,264 7,49 14,99 21,151 7,51 15,104 22,156 8,53 16,105 24,156 8,52 16,102 24,151 8,49 15,96 19,141 4,44 7,86 7,125 0,10 0,20 0,29 0,9 -1,18 -1,27 0,18 -3,35 -4,51 -2,16 -4,30 -7,44 -2,13 -4,26 -7,37 -3,11 -6,21 -8,30 -2,9 -5,16 -7,22 -4,12 -6,18 -6,18 0,0 4,-6 10,-17 2,-5 6,-12 10,-20 4,-9 8,-18 13,-29 4,-11 8,-23 13,-37 3,-6 4,-14 6,-21 2,-7 5,-15 7,-23 7,-32 14,-69 17,-109 4,-40 5,-84 4,-130 -1,-47 -5,-95 -11,-145 -2,-25 -5,-50 -8,-75 -4,-26 -7,-51 -11,-77 -6,-52 -14,-104 -22,-157 -8,-52 -15,-105 -24,-156 -8,-52 -17,-103 -27,-152 -9,-49 -20,-96 -32,-141 -6,-22 -13,-43 -19,-64 -7,-21 -13,-41 -20,-59 -7,-19 -14,-38 -21,-54 -4,-9 -7,-17 -11,-25 -3,-8 -7,-16 -10,-23 -7,-15 -14,-29 -21,-41 -3,-6 -6,-12 -9,-18 -3,-6 -6,-11 -9,-16 -6,-10 -11,-19 -16,-27 -5,-7 -10,-14 -13,-19 -7,-10 -11,-16 -11,-16zm-678 79c0,0 1,6 2,17 1,11 2,28 4,48 2,11 3,22 4,35 1,12 3,26 4,40 1,15 3,30 4,46 2,16 3,33 5,51 1,17 3,36 5,55 1,19 2,39 4,59 0,10 1,20 2,31 0,10 1,21 1,31 1,22 3,43 4,65 0,44 3,90 2,136 0,12 0,23 0,35l0 18 -1 17c-1,23 -2,47 -2,70 -1,24 -4,47 -5,70 -1,12 -1,24 -3,35 -1,12 -2,23 -3,35 -2,11 -3,22 -4,34 -1,5 -1,11 -2,17 -1,5 -2,11 -2,17 -4,22 -7,44 -11,66 -1,11 -3,21 -5,32 -3,10 -5,21 -7,31 -2,11 -4,21 -6,31 -1,10 -5,20 -7,30 -5,19 -9,38 -14,57 -2,9 -5,18 -7,27 -3,9 -6,17 -8,26 -5,17 -10,33 -15,48 -5,15 -11,30 -16,43 -4,14 -9,26 -13,38 -4,12 -9,23 -13,32 -8,19 -14,35 -19,45 -4,10 -6,16 -6,16 0,0 3,-5 10,-14 6,-10 15,-23 26,-41 6,-9 12,-19 18,-30 6,-11 13,-23 19,-36 7,-13 15,-27 22,-42 7,-15 14,-31 21,-47 3,-9 7,-17 11,-26 3,-9 7,-17 10,-27 6,-18 13,-37 20,-57 7,-19 12,-40 18,-61 3,-11 5,-21 8,-32 3,-11 6,-22 8,-33 5,-22 9,-45 14,-68 1,-5 2,-11 3,-17 1,-6 1,-11 2,-17 2,-12 3,-24 5,-35 2,-12 3,-24 5,-36 1,-12 2,-24 3,-36 2,-24 4,-48 5,-72 1,-24 2,-48 2,-72l1 -18 -1 -18c0,-12 0,-24 0,-35 -1,-12 -1,-24 -1,-36 0,-12 -2,-23 -2,-35 -2,-23 -3,-46 -5,-68 -2,-23 -5,-45 -7,-66 -1,-11 -3,-21 -4,-32 -1,-10 -3,-21 -5,-31 -3,-20 -6,-40 -9,-59 -3,-19 -7,-38 -11,-55 -3,-18 -6,-35 -10,-51 -3,-16 -7,-31 -10,-45 -4,-14 -7,-27 -10,-40 -3,-12 -7,-23 -9,-33 -6,-20 -11,-36 -14,-47 -3,-10 -5,-16 -5,-16zm-2413 538c0,0 0,3 -2,9 -1,7 -3,16 -5,27 -1,6 -2,12 -3,19 0,8 -1,15 -1,24 -1,8 -2,17 -2,26 1,10 1,19 1,30 1,20 4,42 7,66 2,11 4,23 7,35 1,6 2,12 3,18 2,6 3,12 5,19 6,24 13,49 21,75 8,25 17,50 27,75 9,25 19,50 28,74 10,24 20,48 29,71 9,23 17,45 25,66 5,10 8,21 12,31 3,10 7,19 10,29 3,9 6,18 9,26 3,9 6,17 8,25 4,15 8,29 12,40l1 4 2 5 6 7 4 2 4 0 2 0 2 -2 1 -4 -2 -4 -3 -2 -2 1 0 1 2 -1 1 5 -1 1 0 0 0 0 -2 -1 -1 -1 -1 -5 -1 -4 0 -4c0,-11 0,-26 0,-42 -1,-17 -3,-35 -5,-56 -3,-20 -7,-42 -12,-64 -6,-23 -11,-47 -19,-71 -3,-12 -7,-24 -11,-37 -4,-12 -8,-24 -12,-37 -9,-25 -18,-49 -27,-74 -10,-25 -19,-50 -28,-74 -5,-12 -9,-24 -14,-36 -4,-12 -8,-23 -12,-35 -2,-6 -4,-11 -6,-17 -2,-6 -4,-11 -6,-17 -3,-11 -7,-22 -10,-33 -3,-10 -6,-21 -9,-31 -1,-5 -3,-10 -4,-15 -1,-5 -3,-10 -4,-14 -2,-10 -4,-19 -6,-28 -3,-8 -3,-17 -5,-24 -3,-16 -6,-30 -7,-42 -2,-11 -3,-20 -4,-27 -1,-6 -2,-9 -2,-9zm1803 -991c3,17 6,33 9,50l5 25 5 25c3,17 6,34 9,50 3,17 5,34 8,51 6,33 11,66 16,100 2,17 4,33 6,50 2,17 4,34 6,50 4,34 7,67 10,101 1,17 3,33 4,50l3 51 2 25 1 25 2 50 1 51c1,17 1,34 1,50l0 51c0,17 -1,33 -1,50 0,34 -2,67 -4,101 -2,34 -3,67 -6,101 -3,33 -5,67 -10,100 -1,17 -3,34 -5,50 -2,17 -4,34 -6,51 -3,16 -5,33 -8,49l-5 25c-1,8 -3,16 -5,24 -2,8 -3,17 -5,25l-7 24c-4,16 -10,32 -15,47 -2,4 -3,8 -4,12l-5 12 -9 21c-3,6 -7,13 -10,20 -5,9 -10,19 -14,28l9 5 16 -21 7 -10c3,-4 5,-8 7,-11l14 -23 6 -11c2,-4 4,-8 6,-12 7,-15 15,-31 21,-47l10 -25c3,-8 5,-16 8,-24 3,-9 6,-17 8,-25l7 -25c5,-17 8,-34 12,-51 4,-17 7,-33 11,-50 3,-17 5,-34 8,-51 6,-34 10,-68 15,-102 2,-17 3,-34 5,-51 2,-17 4,-34 5,-51 2,-34 5,-69 5,-103 1,-17 1,-34 2,-52l0 -51c0,-17 -1,-34 -1,-52l-2 -51c-3,-34 -4,-69 -8,-103l-5 -51c-2,-17 -5,-34 -7,-51 -4,-34 -11,-68 -16,-102 -3,-16 -7,-33 -10,-50 -4,-17 -7,-34 -11,-50 -9,-33 -16,-67 -26,-100 -5,-16 -9,-33 -14,-49 -5,-16 -11,-33 -16,-49 -11,-32 -23,-64 -35,-96zm-215 1511c-2,1 -3,4 -2,8 1,1 2,4 6,5l8 -4 5 -9 1 -4 0 -3 1 -2c2,-12 4,-27 6,-44 2,-17 4,-36 5,-57 2,-21 4,-43 6,-67 1,-24 3,-49 3,-75 1,-26 1,-53 1,-81 0,-27 -1,-55 -1,-83 -1,-27 -3,-55 -4,-83 -2,-27 -4,-54 -6,-80 -3,-26 -5,-51 -8,-75 -3,-24 -6,-46 -9,-67 -7,-41 -13,-75 -18,-99 -3,-12 -5,-22 -7,-28 -1,-7 -2,-10 -2,-10 0,0 0,4 -1,10 -1,7 -2,16 -3,28 -2,25 -4,60 -6,102 0,20 -1,43 -1,67 0,24 -1,49 -1,75 0,26 0,53 1,80 0,13 0,27 1,41 1,14 1,27 1,41 1,28 2,56 3,83 1,27 3,54 4,80 2,26 4,51 5,74 2,24 4,47 6,67 2,21 4,40 6,57 2,17 5,32 6,44l1 2 0 2 0 4 -1 5 -3 3 -2 -1 -1 -5 2 -1 -2 0zm-992 -1044c0,0 0,4 -1,12 0,7 -1,19 -2,33 0,15 -1,33 -2,53 0,10 0,21 -1,32 0,12 1,24 1,36 1,25 2,52 3,81 0,15 2,29 3,44 1,15 3,30 5,46 3,31 6,63 12,96 5,32 10,65 16,98 7,33 14,65 21,97 7,33 17,64 25,94 5,15 9,30 13,44 4,15 9,29 14,42 9,27 18,53 27,76 4,12 8,23 13,34 4,10 9,20 13,30 8,18 15,35 21,48 6,13 12,23 15,31 3,7 5,10 5,10 0,0 0,-4 -2,-12 -1,-7 -3,-19 -6,-33 -3,-14 -6,-32 -10,-51 -2,-10 -5,-21 -7,-32 -2,-11 -5,-23 -7,-35 -5,-24 -11,-50 -17,-78 -1,-7 -3,-14 -5,-21 -1,-7 -2,-14 -4,-22 -3,-14 -6,-29 -9,-44 -3,-15 -6,-31 -10,-46 -3,-16 -6,-32 -9,-47 -6,-32 -13,-64 -20,-97 -5,-32 -11,-64 -17,-96 -3,-16 -7,-32 -9,-47 -3,-16 -6,-31 -8,-47 -3,-15 -6,-30 -9,-44 -1,-8 -2,-15 -4,-22 -1,-7 -2,-14 -3,-21 -5,-28 -10,-54 -14,-79 -2,-12 -4,-24 -7,-35 -1,-11 -3,-22 -5,-32 -3,-20 -7,-37 -9,-51 -3,-15 -6,-26 -7,-34 -2,-7 -3,-11 -3,-11zm589 463c0,0 -2,2 -4,6l-3 3 -2 4 -2 5 -2 6c-3,9 -4,20 -4,32 0,6 0,13 1,20 0,3 1,6 1,10 1,4 1,7 2,11 4,28 11,60 19,94 3,17 9,35 15,53 6,18 12,36 19,54 3,9 7,18 10,27 2,4 3,9 5,13 2,4 4,9 6,13 8,17 16,33 24,49 9,16 17,31 25,46 8,14 17,26 25,38 16,24 31,43 41,56 11,13 18,20 18,20 0,0 -2,-9 -6,-26 -5,-16 -11,-39 -20,-65 -3,-7 -5,-14 -8,-21 -2,-7 -5,-14 -7,-22 -5,-15 -11,-31 -16,-48 -6,-16 -13,-33 -19,-50 -2,-4 -4,-8 -5,-13l-5 -13c-3,-8 -6,-17 -9,-25 -7,-18 -13,-35 -20,-52 -4,-8 -7,-16 -11,-25 -3,-8 -6,-16 -9,-25 -13,-33 -25,-63 -37,-89 -2,-3 -4,-6 -5,-9l-4 -9c-2,-5 -4,-11 -6,-16 -4,-10 -7,-19 -8,-27l0 -5 -1 -5 0 -4 1 -4c0,-5 1,-7 1,-7z"/>
  <path class="fil0" d="M25451 12664l-801 0c-79,0 -157,-12 -230,-36 -26,-36 -49,-76 -68,-117 -12,-26 -23,-54 -31,-82 96,61 210,95 329,95l801 0c176,0 345,-76 461,-207 114,-128 169,-298 150,-467l-266 -1158c46,29 92,60 138,95 11,12 23,23 35,34l230 1001 2 8c24,210 -43,422 -184,581 -143,161 -350,253 -566,253zm-1424 -1347l122 -491c49,-43 94,-90 136,-142 12,-6 29,-15 50,-25l-148 594c-51,25 -105,47 -160,64zm1893 -712c-3,-2 -6,-4 -10,-6l8 -2 2 8z"/>
  <path class="fil0" d="M26757 11121c-181,0 -357,-41 -516,-118 -19,-13 -38,-26 -56,-38l2 10c-45,-25 -88,-53 -130,-83 -30,-23 -59,-46 -88,-71 -12,-11 -24,-22 -35,-34 -46,-35 -92,-66 -138,-95 -250,-152 -503,-203 -729,-203 -333,0 -608,110 -732,170 -21,10 -38,19 -50,25 -42,52 -87,99 -136,142 -214,189 -489,295 -782,295 -173,0 -337,-37 -484,-104 -80,-84 -146,-182 -195,-288 182,156 419,251 679,251 321,0 619,-143 817,-394 5,-7 12,-13 20,-18 61,-34 414,-220 865,-220 260,0 553,62 841,251 4,2 7,4 10,6 34,23 69,47 103,74l6 5c35,34 72,66 111,95 180,132 393,201 617,201 572,0 1037,-460 1037,-1025 0,-21 -1,-41 -2,-61l0 -8c1,-21 2,-42 2,-63 0,-322 -151,-620 -404,-813 -7,-10 -13,-20 -20,-29 154,110 235,192 235,192 78,41 150,91 215,148 74,154 114,325 114,502 0,22 -1,45 -2,67 1,22 2,43 2,65 0,643 -528,1166 -1177,1166zm569 -2156c-26,-17 -53,-33 -80,-47 -6,-3 -12,-8 -17,-13 -1,-1 -26,-25 -74,-65 57,34 110,68 156,100 4,5 7,11 10,17 2,3 3,5 5,8z"/>
  <path class="fil0" d="M26916 8974c0,0 -7,-8 -17,-22 -6,-7 -12,-15 -19,-25 -6,-10 -14,-21 -23,-33 -8,-12 -17,-25 -26,-39 -8,-14 -18,-28 -28,-43 -9,-15 -19,-31 -29,-47 -11,-16 -20,-32 -30,-49 -10,-16 -21,-32 -30,-49 -10,-16 -19,-32 -29,-47 -3,-5 -6,-11 -9,-16 32,13 64,26 94,39 10,13 18,27 27,41 10,17 20,34 29,51 10,16 18,34 26,50 8,17 15,33 21,49 7,16 12,31 17,44 2,7 5,14 7,20 2,7 4,13 5,19 3,11 6,22 8,30 4,17 6,27 6,27z"/>
  <path class="fil0" d="M27224 10846c0,0 2,-6 6,-18 2,-6 5,-13 7,-22 2,-9 5,-19 8,-30 3,-11 5,-24 7,-37 3,-14 5,-28 7,-44 1,-16 4,-33 4,-51 0,-9 1,-18 1,-27 0,-9 0,-19 0,-29 0,-39 -3,-81 -7,-125 -4,-45 -11,-92 -19,-141 -8,-49 -16,-99 -24,-151 -8,-51 -16,-103 -24,-156 -7,-52 -15,-105 -22,-156 -7,-52 -14,-102 -21,-151 -15,-98 -32,-188 -51,-264 -5,-19 -10,-37 -16,-55 -2,-8 -4,-17 -7,-25 -2,-8 -5,-16 -7,-23 -5,-16 -11,-30 -15,-43 -2,-6 -5,-13 -7,-19 -2,-6 -4,-11 -7,-17 -4,-10 -7,-20 -11,-28 -4,-9 -7,-16 -9,-21 -5,-12 -8,-18 -8,-18 0,0 4,6 11,16 3,5 8,12 13,19 5,8 10,17 16,27 3,5 6,10 9,16 3,6 6,12 9,18 7,12 14,26 21,41 3,7 7,15 10,23 4,8 7,16 11,25 7,16 14,35 21,54 7,18 13,38 20,59 6,21 13,42 19,64 12,45 23,92 32,141 10,49 19,100 27,152 9,51 16,104 24,156 8,53 16,105 22,157 4,26 7,51 11,77 3,25 6,50 8,75 6,50 10,98 11,145 1,46 0,90 -4,130 -3,40 -10,77 -17,109 -2,8 -5,16 -7,23 -2,7 -3,15 -6,21 -5,14 -9,26 -13,37 -5,11 -9,20 -13,29 -4,8 -8,15 -10,20 -6,11 -10,17 -10,17z"/>
  <path class="fil0" d="M26785 9557c0,0 -3,-5 -7,-14 -5,-10 -12,-23 -21,-41 -9,-17 -19,-39 -31,-63 -11,-25 -25,-53 -38,-83 -14,-31 -29,-64 -45,-99 -15,-35 -31,-72 -47,-111 -16,-38 -33,-78 -49,-119 -16,-41 -33,-82 -49,-124 -16,-41 -32,-83 -47,-124 -8,-20 -16,-40 -24,-60 -7,-20 -15,-40 -23,-59 -15,-38 -31,-75 -46,-110 -4,-9 -8,-17 -12,-26 -3,-8 -7,-16 -11,-24 -2,-3 -3,-7 -5,-10 19,5 38,10 57,16 4,7 9,15 13,23 19,34 37,71 55,109 18,38 36,78 52,119 17,41 34,82 50,124 16,42 32,83 47,124 15,41 30,82 44,121 14,40 27,78 40,114 12,36 23,71 33,103 11,32 20,61 28,87 8,26 14,49 20,68 5,18 9,33 12,43 3,11 4,16 4,16z"/>
  <path class="fil0" d="M26711 10946l9 -20 0 0c6,-12 12,-24 18,-36l17 -36c11,-24 22,-48 32,-72 5,-12 10,-24 14,-36l6 -18c2,-6 3,-12 5,-18 2,-6 3,-12 5,-18l4 -19 2 -10 1 -5 0 0 0 1 0 -1 0 -1 1 -2 2 -19 2 -19c1,-6 1,-12 1,-19 1,-13 2,-25 2,-38l0 -39 -1 -39 -1 -79 0 -79 0 -39 -1 -40c0,-26 0,-52 0,-78 -1,-27 -1,-53 -1,-79l-2 -79c0,-26 -2,-52 -3,-78l-1 -40c-1,-13 -2,-26 -3,-39l-2 -39 -2 -20 -1 -20c-3,-26 -5,-52 -7,-79 9,25 16,51 23,76 2,7 4,13 6,19l4 20 9 39c3,13 5,26 8,39l6 40c2,13 4,26 6,39 3,13 4,27 6,40 2,26 5,53 8,79 2,27 3,53 5,80 2,26 2,53 3,79 1,27 1,53 2,80 0,26 0,53 0,79l-1 79 -2 40c0,13 -1,27 -2,41 0,13 -3,27 -4,40 -1,7 -1,14 -3,21l-4 20 -4 20 -1 3 0 1 0 1 -1 1 0 0 -1 5 -3 10 -6 19c-3,6 -5,13 -8,19 -2,7 -5,13 -8,20l-9 18c-6,12 -13,24 -19,36 -13,23 -29,46 -44,68 -16,21 -31,43 -48,63l-14 18z"/>
  <path class="fil0" d="M26289 9107c0,0 -2,-4 -7,-12 -4,-8 -10,-20 -17,-35 -7,-15 -16,-33 -26,-55 -10,-21 -21,-44 -32,-71 -12,-26 -24,-54 -37,-84 -12,-30 -25,-62 -39,-95 -6,-17 -13,-33 -20,-50 -6,-17 -13,-34 -21,-51 -3,-8 -7,-16 -10,-24 -4,-8 -8,-17 -12,-25 -2,-4 -3,-8 -5,-12l-7 -13 -14 -25 -3 -6 -2 -3 0 -1 -1 -1 -7 -11 -15 -23 -7 -12 -9 -11c-5,-7 -10,-14 -16,-22 -14,-18 -28,-36 -42,-54 29,4 58,8 87,13 1,2 2,3 4,5 24,30 46,62 67,97l13 25 7 13c2,4 4,9 6,13 4,9 8,19 12,28 4,9 8,18 11,27 14,35 26,70 37,104 11,34 21,67 31,98 9,31 18,61 26,88 8,28 15,53 21,75 6,23 11,43 15,59 4,16 7,29 9,37 2,9 3,14 3,14z"/>
  <path class="fil0" d="M26203 10758c0,0 2,-6 6,-16 5,-10 11,-26 19,-45 4,-9 9,-20 13,-32 4,-12 9,-24 13,-38 5,-13 11,-28 16,-43 5,-15 10,-31 15,-48 2,-9 5,-17 8,-26 2,-9 5,-18 7,-27 5,-19 9,-38 14,-57 2,-10 6,-20 7,-30 2,-10 4,-20 6,-31 2,-10 4,-21 7,-31 2,-11 4,-21 5,-32 4,-22 7,-44 11,-66 0,-6 1,-12 2,-17 1,-6 1,-12 2,-17 1,-12 2,-23 4,-34 1,-12 2,-23 3,-35 2,-11 2,-23 3,-35 1,-23 4,-46 5,-70 0,-23 1,-47 2,-70l1 -17 0 -18c0,-12 0,-23 0,-35 1,-46 -2,-92 -2,-136 -1,-22 -3,-43 -4,-65 0,-10 -1,-21 -1,-31 -1,-11 -2,-21 -2,-31 -2,-20 -3,-40 -4,-59 -2,-19 -4,-38 -5,-55 -2,-18 -3,-35 -5,-51 -1,-16 -3,-31 -4,-46 -1,-14 -3,-28 -4,-40 -1,-13 -2,-24 -4,-35 -2,-20 -3,-37 -4,-48 -1,-11 -2,-17 -2,-17 0,0 2,6 5,16 3,11 8,27 14,47 2,10 6,21 9,33 3,13 6,26 10,40 3,14 7,29 10,45 4,16 7,33 10,51 4,17 8,36 11,55 3,19 6,39 9,59 2,10 4,21 5,31 1,11 3,21 4,32 2,21 5,43 7,66 2,22 3,45 5,68 0,12 2,23 2,35 0,12 0,24 1,36 0,11 0,23 0,35l1 18 -1 18c0,24 -1,48 -2,72 -1,24 -3,48 -5,72 -1,12 -2,24 -3,36 -2,12 -3,24 -5,36 -2,11 -3,23 -5,35 -1,6 -1,11 -2,17 -1,6 -2,12 -3,17 -5,23 -9,46 -14,68 -2,11 -5,22 -8,33 -3,11 -5,21 -8,32 -6,21 -11,42 -18,61 -7,20 -14,39 -20,57 -3,10 -7,18 -10,27 -4,9 -8,17 -11,26 -7,16 -14,32 -21,47 -7,15 -15,29 -22,42 -6,13 -13,25 -19,36 -6,11 -12,21 -18,30 -11,18 -20,31 -26,41 -7,9 -10,14 -10,14z"/>
  <path class="fil0" d="M25615 8552c0,0 -6,-7 -14,-19 -4,-6 -9,-13 -15,-22 -3,-4 -5,-9 -8,-13 -3,-5 -7,-10 -10,-15 -7,-11 -14,-22 -21,-34 -3,-6 -7,-12 -11,-18 -4,-6 -7,-13 -11,-19 -4,-7 -8,-13 -12,-20 -2,-4 -4,-8 -7,-12 22,0 44,1 66,1 1,2 2,4 2,6 6,15 12,29 16,43 5,14 8,27 12,39 1,6 3,12 4,17 1,6 2,11 3,17 1,10 3,19 4,26 1,15 2,23 2,23z"/>
  <path class="fil0" d="M25699 10421l-9 -5c4,-9 9,-19 14,-28 3,-7 7,-14 10,-20l9 -21 5 -12c1,-4 2,-8 4,-12 5,-15 11,-31 15,-47l7 -24c2,-8 3,-17 5,-25 2,-8 4,-16 5,-24l5 -25c3,-16 5,-33 8,-49 2,-17 4,-34 6,-51 2,-16 4,-33 5,-50 5,-33 7,-67 10,-100 3,-34 4,-67 6,-101 2,-34 4,-67 4,-101 0,-17 1,-33 1,-50l0 -51c0,-16 0,-33 -1,-50l-1 -51 -2 -50 -1 -25 -2 -25 -3 -51c-1,-17 -3,-33 -4,-50 -3,-34 -6,-67 -10,-101 -2,-16 -4,-33 -6,-50 -2,-17 -4,-33 -6,-50 -5,-34 -10,-67 -16,-100 -3,-17 -5,-34 -8,-51 -3,-16 -6,-33 -9,-50l-5 -25 -5 -25c-3,-17 -6,-33 -9,-50 12,32 24,64 35,96 5,16 11,33 16,49 5,16 9,33 14,49 10,33 17,67 26,100 4,16 7,33 11,50 3,17 7,34 10,50 5,34 12,68 16,102 2,17 5,34 7,51l5 51c4,34 5,69 8,103l2 51c0,18 1,35 1,52l0 51c-1,18 -1,35 -2,52 0,34 -3,69 -5,103 -1,17 -3,34 -5,51 -2,17 -3,34 -5,51 -5,34 -9,68 -15,102 -3,17 -5,34 -8,51 -4,17 -7,33 -11,50 -4,17 -7,34 -12,51l-7 25c-2,8 -5,16 -8,25 -3,8 -5,16 -8,24l-10 25c-6,16 -14,32 -21,47 -2,4 -4,8 -6,12l-6 11 -14 23c-2,3 -4,7 -7,11l-7 10 -16 21z"/>
  <path class="fil0" d="M25453 9123c0,0 -1,-4 -4,-11 -2,-8 -6,-19 -10,-33 -4,-14 -9,-31 -15,-50 -5,-20 -11,-42 -17,-66 -6,-24 -13,-50 -19,-78 -2,-7 -4,-14 -5,-21 -2,-7 -4,-14 -6,-22 -4,-14 -7,-29 -11,-44 -7,-30 -15,-61 -22,-93 -7,-32 -14,-64 -21,-96 -8,-32 -15,-65 -22,-96 -7,-32 -14,-63 -20,-94 -2,-10 -4,-21 -7,-31 19,-1 37,-2 55,-3 2,6 4,13 6,20 8,31 17,62 25,94 8,31 16,64 24,96 7,33 14,65 20,98 6,32 11,64 17,94 2,16 5,31 7,46 3,15 5,29 6,43 3,29 6,56 9,81 2,25 4,48 5,68 2,20 3,38 3,52 1,15 1,26 2,34 0,8 0,12 0,12z"/>
  <path class="fil0" d="M25510 10345c-4,-1 -5,-4 -6,-5 -1,-4 0,-7 2,-8l2 0 -2 1 1 5 2 1 3 -3 1 -5 0 -4 0 -2 -1 -2c-1,-12 -4,-27 -6,-44 -2,-17 -4,-36 -6,-57 -2,-20 -4,-43 -6,-67 -1,-23 -3,-48 -5,-74 -1,-26 -3,-53 -4,-80 -1,-27 -2,-55 -3,-83 0,-14 0,-27 -1,-41 -1,-14 -1,-28 -1,-41 -1,-27 -1,-54 -1,-80 0,-26 1,-51 1,-75 0,-24 1,-47 1,-67 2,-42 4,-77 6,-102 1,-12 2,-21 3,-28 1,-6 1,-10 1,-10 0,0 1,3 2,10 2,6 4,16 7,28 5,24 11,58 18,99 3,21 6,43 9,67 3,24 5,49 8,75 2,26 4,53 6,80 1,28 3,56 4,83 0,28 1,56 1,83 0,28 0,55 -1,81 0,26 -2,51 -3,75 -2,24 -4,46 -6,67 -1,21 -3,40 -5,57 -2,17 -4,32 -6,44l-1 2 0 3 -1 4 -5 9 -8 4z"/>
  <path class="fil0" d="M25048 9533c0,0 -2,-5 -5,-15 -4,-10 -9,-25 -15,-43 -3,-10 -7,-20 -10,-31 -4,-12 -7,-24 -11,-37 -3,-14 -7,-28 -11,-43 -4,-15 -7,-30 -11,-47 -3,-16 -8,-34 -11,-52 -3,-18 -7,-36 -10,-55 -3,-19 -6,-39 -9,-59 -2,-20 -5,-41 -7,-62 -4,-42 -9,-86 -11,-130 -3,-44 -3,-89 -4,-134 0,-45 0,-90 1,-135 1,-44 4,-87 7,-129 3,-42 6,-83 9,-121 1,-5 2,-10 2,-15 15,-3 30,-5 46,-7 0,8 0,16 0,24 -1,39 -1,79 -2,121 0,41 -1,85 -1,128 0,44 0,89 0,133 1,44 1,89 3,132 0,11 1,22 1,33 0,11 1,22 1,32 1,22 2,43 3,64 1,20 3,41 4,61 1,10 1,20 2,29 0,10 1,20 2,29 2,19 3,38 5,56 1,18 3,35 5,51 1,17 3,33 5,48 1,15 3,29 5,43 2,13 3,26 4,38 2,12 4,22 5,32 3,19 5,35 6,45 2,11 2,16 2,16z"/>
  <path class="fil0" d="M25297 10311c0,0 -7,-7 -18,-20 -10,-13 -25,-32 -41,-56 -8,-12 -17,-24 -25,-38 -8,-15 -16,-30 -25,-46 -8,-16 -16,-32 -24,-49 -2,-4 -4,-9 -6,-13 -2,-4 -3,-9 -5,-13 -3,-9 -7,-18 -10,-27 -7,-18 -13,-36 -19,-54 -6,-18 -12,-36 -15,-53 -8,-34 -15,-66 -19,-94 -1,-4 -1,-7 -2,-11 0,-4 -1,-7 -1,-10 -1,-7 -1,-14 -1,-20 0,-12 1,-23 4,-32l2 -6 2 -5 2 -4 3 -3c2,-4 4,-6 4,-6 0,0 -1,2 -1,7l-1 4 0 4 1 5 0 5c1,8 4,17 8,27 2,5 4,11 6,16l4 9c1,3 3,6 5,9 12,26 24,56 37,89 3,9 6,17 9,25 4,9 7,17 11,25 7,17 13,34 20,52 3,8 6,17 9,25l5 13c1,5 3,9 5,13 6,17 13,34 19,50 5,17 11,33 16,48 2,8 5,15 7,22 3,7 5,14 8,21 9,26 15,49 20,65 4,17 6,26 6,26z"/>
  <path class="fil0" d="M24523 9019c0,0 0,-4 -2,-10 -1,-7 -3,-17 -4,-29 -2,-13 -5,-28 -7,-46 -1,-9 -2,-18 -3,-28 -1,-10 -1,-21 -2,-31 -1,-22 -2,-46 -2,-71 0,-6 0,-13 0,-19 0,-7 0,-13 0,-20 1,-13 2,-26 3,-40 1,-27 2,-56 7,-84 4,-28 8,-57 12,-86 3,-12 6,-25 8,-37 23,-6 45,-12 67,-18 -4,22 -8,44 -13,66 -4,28 -9,56 -14,83 -2,14 -5,28 -7,41 -1,14 -3,27 -5,41 -2,13 -4,26 -6,39 -1,6 -2,12 -3,18 -1,7 -1,13 -2,19 -3,24 -6,47 -9,69 -1,10 -2,21 -4,30 -1,10 -2,19 -3,28 -1,18 -3,33 -5,45 -1,13 -3,23 -4,30 -1,6 -2,10 -2,10z"/>
  <path class="fil0" d="M24715 10325c0,0 -2,-3 -5,-10 -3,-8 -9,-18 -15,-31 -6,-13 -13,-30 -21,-48 -4,-10 -9,-20 -13,-30 -5,-11 -9,-22 -13,-34 -9,-23 -18,-49 -27,-76 -5,-13 -10,-27 -14,-42 -4,-14 -8,-29 -13,-44 -8,-30 -18,-61 -25,-94 -7,-32 -14,-64 -21,-97 -6,-33 -11,-66 -16,-98 -6,-33 -9,-65 -12,-96 -2,-16 -4,-31 -5,-46 -1,-15 -3,-29 -3,-44 -1,-29 -2,-56 -3,-81 0,-12 -1,-24 -1,-36 1,-11 1,-22 1,-32 1,-20 2,-38 2,-53 1,-14 2,-26 2,-33 1,-8 1,-12 1,-12 0,0 1,4 3,11 1,8 4,19 7,34 2,14 6,31 9,51 2,10 4,21 5,32 3,11 5,23 7,35 4,25 9,51 14,79 1,7 2,14 3,21 2,7 3,14 4,22 3,14 6,29 9,44 2,16 5,31 8,47 2,15 6,31 9,47 6,32 12,64 17,96 7,33 14,65 20,97 3,15 6,31 9,47 4,15 7,31 10,46 3,15 6,30 9,44 2,8 3,15 4,22 2,7 4,14 5,21 6,28 12,54 17,78 2,12 5,24 7,35 2,11 5,22 7,32 4,19 7,37 10,51 3,14 5,26 6,33 2,8 2,12 2,12z"/>
  <path class="fil0" d="M23911 9555c0,0 -2,-6 -4,-16 -2,-10 -6,-25 -11,-45 -3,-19 -7,-43 -11,-70 -2,-28 -6,-59 -6,-93 -2,-34 -2,-70 0,-109 1,-20 1,-40 3,-60 1,-20 3,-41 5,-62 4,-42 9,-85 16,-129 3,-22 6,-44 10,-66 4,-23 8,-45 12,-67 4,-22 10,-44 15,-66 3,-14 6,-27 10,-40 23,-11 47,-21 71,-31 -2,7 -4,14 -6,21 -5,21 -10,42 -15,63 -4,22 -9,43 -13,65 -5,22 -9,43 -13,65 -4,22 -7,44 -11,65 -4,22 -7,43 -11,64 -3,21 -6,42 -10,63 -3,21 -6,41 -9,60 -2,20 -5,40 -7,59 -3,18 -4,37 -7,55 -2,17 -3,35 -4,51 -2,17 -3,33 -3,48 -1,15 -2,29 -3,43 0,27 0,50 0,70 1,19 1,35 1,45 1,11 1,17 1,17z"/>
  <path class="fil0" d="M24126 10615l-4 0 -4 -2 -6 -7 -2 -5 -1 -4c-4,-11 -8,-25 -12,-40 -2,-8 -5,-16 -8,-25 -3,-8 -6,-17 -9,-26 -3,-10 -7,-19 -10,-29 -4,-10 -7,-21 -12,-31 -8,-21 -16,-43 -25,-66 -9,-23 -19,-47 -29,-71 -9,-24 -19,-49 -28,-74 -10,-25 -19,-50 -27,-75 -8,-26 -15,-51 -21,-75 -2,-7 -3,-13 -5,-19 -1,-6 -2,-12 -3,-18 -3,-12 -5,-24 -7,-35 -3,-24 -6,-46 -7,-66 0,-11 0,-20 -1,-30 0,-9 1,-18 2,-26 0,-9 1,-16 1,-24 1,-7 2,-13 3,-19 2,-11 4,-20 5,-27 2,-6 2,-9 2,-9 0,0 1,3 2,9 1,7 2,16 4,27 1,12 4,26 7,42 2,7 2,16 5,24 2,9 4,18 6,28 1,4 3,9 4,14 1,5 3,10 4,15 3,10 6,21 9,31 3,11 7,22 10,33 2,6 4,11 6,17 2,6 4,11 6,17 4,12 8,23 12,35 5,12 9,24 14,36 9,24 18,49 28,74 9,25 18,49 27,74 4,13 8,25 12,37 4,13 8,25 11,37 8,24 13,48 19,71 5,22 9,44 12,64 2,21 4,39 5,56 0,16 0,31 0,42l0 4 1 4 1 5 1 1 2 1 0 0 0 0 1 -1 -1 -5 -2 1 0 -1 2 -1 3 2 2 4 -1 4 -2 2 -2 0z"/>
  <path class="fil0" d="M23560 10893c0,0 -3,-5 -9,-16 -6,-10 -15,-25 -26,-45 -11,-19 -23,-43 -37,-71 -14,-27 -29,-59 -45,-94 -8,-18 -15,-36 -23,-55 -8,-19 -16,-39 -23,-60 -8,-21 -15,-42 -22,-64 -7,-22 -14,-45 -20,-68 -4,-12 -7,-24 -9,-36 -3,-12 -6,-24 -8,-37 -2,-6 -3,-12 -4,-18 -2,-6 -3,-12 -4,-19 -2,-12 -4,-24 -6,-36 -1,-13 -3,-25 -5,-37l-1 -5 0 -6 -1 -9 -2 -20c-1,-12 -2,-25 -2,-38 -1,-13 -3,-26 -3,-39 0,-25 0,-51 0,-77 -1,-12 0,-25 0,-38 1,-12 1,-25 2,-38 0,-12 0,-25 1,-37 1,-12 2,-25 3,-37 1,-24 2,-48 4,-72 4,-47 7,-93 11,-136 3,-44 7,-85 11,-123 4,-37 7,-72 11,-103 3,-31 7,-57 9,-79 3,-22 6,-40 7,-51 2,-12 3,-19 3,-19 0,0 0,7 1,19 0,12 1,29 2,51 0,22 1,49 2,80 0,31 1,66 1,104 0,38 0,79 0,123 -1,43 -1,89 -2,136 -1,47 -3,97 -3,146 -1,25 -1,50 -1,75 0,24 1,49 1,74 0,13 1,25 2,37 1,13 2,25 2,37l2 19 0 9 0 2 0 1 0 1 0 0 1 4c2,13 3,25 5,37 1,13 3,25 5,37 0,7 1,12 2,18 1,6 3,12 4,18 2,11 4,23 6,34 2,12 4,23 7,35 5,23 10,45 15,67 6,22 12,43 18,64 5,21 12,40 18,60 6,19 11,38 17,56 6,18 12,35 17,51 3,9 6,17 8,24 3,8 6,16 8,23 11,29 19,55 27,75 8,21 13,38 17,49 4,11 6,17 6,17z"/>
  <path class="fil0" d="M22841 10408c0,0 -2,-6 -6,-16 -3,-9 -9,-24 -16,-42 -3,-10 -7,-20 -11,-31 -4,-11 -8,-24 -12,-37 -4,-13 -9,-27 -13,-42 -4,-14 -8,-30 -12,-47 -4,-16 -9,-33 -13,-51 -4,-18 -8,-36 -12,-55 -2,-10 -4,-20 -5,-29 -2,-10 -3,-20 -5,-30 -3,-21 -6,-41 -9,-62 -5,-42 -10,-86 -12,-131 -3,-44 -3,-90 -4,-135 1,-23 2,-47 3,-70 20,-38 43,-75 67,-110 -1,16 -1,32 -2,49 -3,43 -4,88 -5,132 1,44 0,88 2,132 1,21 1,43 3,64 1,22 2,43 3,63 2,21 4,41 5,61 1,10 2,20 3,30 1,10 2,19 3,29 2,19 4,37 6,55 2,18 5,35 7,52 2,16 4,32 7,47 2,15 4,29 6,43 3,13 5,26 6,38 2,11 4,22 6,32 4,19 6,34 8,44 2,11 2,17 2,17z"/>
  <path class="fil0" d="M23039 10846c0,0 -4,-2 -11,-7 -7,-5 -16,-12 -26,-22 -4,-5 -10,-10 -15,-16 -5,-6 -9,-13 -14,-20 -4,-7 -8,-14 -13,-22 -4,-8 -8,-16 -11,-24 -3,-8 -6,-17 -8,-25 -3,-9 -5,-17 -7,-25 -1,-9 -3,-17 -3,-24 -1,-8 -1,-15 0,-22 0,-13 1,-24 3,-33 1,-8 3,-13 3,-13 0,0 3,4 9,10 5,6 12,16 20,27 3,6 7,12 10,19 4,6 8,12 11,19 4,7 8,14 11,22 3,7 6,15 9,22 4,8 7,15 9,23 3,8 6,15 8,23 2,7 3,15 6,22 2,7 3,14 4,20 3,13 4,25 5,33 0,8 0,13 0,13z"/>
  <path class="fil0" d="M27672 10220c0,0 0,-6 -1,-17 0,-11 -1,-27 -2,-47 -1,-10 -1,-21 -2,-33 -1,-12 -1,-25 -2,-39 -1,-14 -2,-29 -4,-45 -1,-15 -3,-31 -5,-49 -2,-17 -3,-34 -5,-53 -3,-18 -6,-37 -8,-56 -2,-10 -3,-20 -4,-30 -2,-9 -4,-20 -6,-30 -3,-20 -6,-41 -10,-62 -5,-20 -9,-42 -14,-63 -2,-11 -4,-22 -7,-32 -3,-11 -5,-22 -8,-33 -10,-43 -23,-87 -35,-130 -15,-43 -28,-87 -44,-129 -8,-21 -15,-42 -23,-62 -8,-20 -17,-40 -25,-60 -8,-20 -17,-39 -25,-58 -4,-9 -8,-18 -12,-27 -5,-10 -9,-18 -14,-27 -8,-18 -16,-35 -25,-52 -8,-16 -16,-32 -24,-47 -8,-15 -16,-30 -24,-44 -6,-10 -11,-20 -17,-30 -2,-3 -3,-5 -5,-8 -3,-6 -6,-12 -10,-17 21,14 40,27 59,41 7,9 13,19 20,29 3,4 5,7 7,11 10,14 21,29 31,45 10,16 20,33 30,50 5,9 11,17 16,26 4,9 9,19 14,28 10,19 20,38 30,57 18,40 38,81 54,124 18,43 32,87 47,132 12,45 26,90 34,135 11,45 17,89 24,133 3,21 6,43 8,64 1,10 2,20 3,31 1,10 1,20 2,30 1,20 2,40 3,58 0,19 -1,37 -1,55 0,17 0,34 0,50 -1,16 -3,31 -4,45 -1,14 -1,27 -2,39 -1,12 -3,24 -5,34 -2,20 -5,36 -6,46 -2,11 -3,17 -3,17z"/>
 </g>
</svg>
