<?xml version="1.0" encoding="UTF-8"?>
<!DOCTYPE svg PUBLIC "-//W3C//DTD SVG 1.1//EN" "http://www.w3.org/Graphics/SVG/1.1/DTD/svg11.dtd">
<!-- Creator: CorelDRAW X8 -->
<svg xmlns="http://www.w3.org/2000/svg" xml:space="preserve" width="508mm" height="210mm" version="1.1" style="shape-rendering:geometricPrecision; text-rendering:geometricPrecision; image-rendering:optimizeQuality; fill-rule:evenodd; clip-rule:evenodd"
viewBox="0 0 50800 21000"
 xmlns:xlink="http://www.w3.org/1999/xlink">
 <defs>
  <style type="text/css">
   <![CDATA[
    .fil1 {fill:#7BA1D6;fill-rule:nonzero}
    .fil0 {fill:#D7E3F3;fill-rule:nonzero}
   ]]>
  </style>
 </defs>
 <g id="Camada_x0020_1">
  <metadata id="CorelCorpID_0Corel-Layer"/>
  <path class="fil0" d="M36808 12885c-394,0 -751,-161 -1007,-419 -373,213 -778,323 -1168,323 -158,0 -313,-18 -462,-54 -12,-6 -25,-13 -37,-19l-9 7c-83,61 -181,92 -278,92 -110,0 -219,-39 -304,-119 -6,-6 -13,-12 -19,-18 -145,-155 -157,-391 -32,-565 -465,-759 -302,-1858 452,-2645 501,-524 1156,-797 1772,-797 157,0 312,18 461,54l8 4 2 -2c89,-80 201,-121 313,-121 110,0 219,39 303,119 7,6 14,13 20,19 149,159 157,405 20,580 380,599 362,1416 -35,2125l-39 40 1449 0c0,771 -631,1396 -1410,1396z"/>
  <path class="fil1" d="M33451 12477c-129,0 -257,-47 -357,-140 -7,-7 -14,-15 -21,-23 -159,-167 -184,-420 -68,-620 -464,-807 -268,-1909 487,-2697 627,-656 1498,-950 2280,-772 206,-160 502,-152 690,26 8,7 16,14 23,22 164,174 185,435 57,637 365,616 344,1439 -60,2160l-137 -77c386,-689 400,-1472 37,-2044 -18,-28 -16,-64 4,-90 114,-146 108,-347 -16,-478 -5,-5 -10,-11 -15,-16 -140,-131 -364,-129 -510,3l-2 3c-24,21 -59,25 -88,11 -722,-171 -1565,112 -2150,723 -719,751 -900,1800 -441,2550 16,27 15,61 -3,87 -103,144 -93,339 25,465 5,5 11,10 16,15 131,123 333,131 481,21l8 -6c24,-19 58,-22 85,-8 9,5 18,10 27,14 507,120 1085,20 1588,-276l80 135c-541,318 -1166,425 -1713,292 -4,-1 -8,-2 -12,-4 -91,58 -194,87 -295,87z"/>
  <path class="fil1" d="M35084 11151c42,690 622,1239 1330,1239 707,0 1287,-549 1329,-1239l-2659 0zm1330 1396c-821,0 -1489,-662 -1489,-1475 0,-43 35,-78 79,-78l2820 0c43,0 78,35 78,78 0,813 -668,1475 -1488,1475z"/>
  <path class="fil1" d="M35405 11160c41,515 477,922 1009,922 531,0 968,-407 1008,-922l-2017 0zm1009 1079c-645,0 -1169,-520 -1169,-1158 0,-43 35,-79 78,-79l2181 0c43,0 79,36 79,79 0,638 -525,1158 -1169,1158z"/>
  <path class="fil1" d="M36414 11874c-44,0 -79,-35 -79,-79l0 -418c0,-44 35,-79 79,-79 43,0 78,35 78,79l0 418c0,44 -35,79 -78,79z"/>
  <path class="fil1" d="M37019 11717c-26,0 -52,-14 -67,-38l-219 -358c-23,-37 -11,-85 25,-108 37,-22 86,-11 109,26l219 358c23,37 11,86 -26,108 -12,8 -27,12 -41,12z"/>
  <path class="fil1" d="M35826 11717c-14,0 -28,-4 -41,-12 -37,-22 -48,-71 -26,-108l220 -358c23,-37 71,-48 108,-26 37,23 48,71 26,108l-220 358c-14,24 -40,38 -67,38z"/>
 </g>
</svg>
