<?xml version="1.0" encoding="UTF-8"?>
<!DOCTYPE svg PUBLIC "-//W3C//DTD SVG 1.1//EN" "http://www.w3.org/Graphics/SVG/1.1/DTD/svg11.dtd">
<!-- Creator: CorelDRAW X8 -->
<svg xmlns="http://www.w3.org/2000/svg" xml:space="preserve" width="508mm" height="210mm" version="1.1" style="shape-rendering:geometricPrecision; text-rendering:geometricPrecision; image-rendering:optimizeQuality; fill-rule:evenodd; clip-rule:evenodd"
viewBox="0 0 50800 21000"
 xmlns:xlink="http://www.w3.org/1999/xlink">
 <defs>
  <style type="text/css">
   <![CDATA[
    .fil1 {fill:#794E90;fill-rule:nonzero}
    .fil0 {fill:#D7CADD;fill-rule:nonzero}
   ]]>
  </style>
 </defs>
 <g id="Camada_x0020_1">
  <metadata id="CorelCorpID_0Corel-Layer"/>
  <path class="fil0" d="M46675 13484c-270,0 -437,-129 -437,-129l-140 -96 -139 96c0,0 -166,129 -437,129 -367,0 -925,-238 -1517,-1358 -925,-1750 227,-2909 1103,-2909 42,0 84,3 125,8 55,8 108,20 158,38 91,31 170,58 241,83 111,25 241,45 382,54 -1,-31 -2,-133 28,-270 -46,4 -89,6 -130,6 -1102,0 -1009,-1337 -1009,-1337 948,319 1165,826 1208,1111 87,-208 249,-443 553,-632l89 143c-607,377 -571,971 -571,977l-81 6c20,0 40,1 60,1 98,0 200,-7 304,-23 92,-33 204,-72 341,-119 50,-18 103,-30 157,-37l0 -1 0 1c41,-6 83,-9 126,-9 876,0 2028,1159 1103,2909 -593,1120 -1150,1358 -1517,1358z"/>
  <path class="fil1" d="M45598 12862c17,0 34,5 48,15l139 95 4 3c8,7 224,167 560,93 546,-121 991,-771 1268,-1295 582,-1101 274,-1831 39,-2168 -289,-413 -774,-663 -1180,-609l-2 0c-50,7 -97,18 -141,33 -137,47 -249,87 -340,120 -5,2 -11,3 -16,4 -270,41 -560,29 -864,-37 -4,-1 -7,-2 -10,-3 -70,-25 -149,-53 -239,-84 -45,-15 -93,-26 -143,-33 -407,-54 -892,196 -1181,610 -235,337 -543,1067 39,2167 278,526 725,1178 1274,1296 336,72 552,-92 555,-94l4 -3 139 -95c14,-10 31,-15 47,-15zm576 394c-280,0 -461,-128 -486,-146l-90 -62 -90 62c-30,23 -295,209 -691,124 -491,-106 -958,-571 -1387,-1382 -455,-861 -465,-1715 -28,-2343 328,-470 867,-744 1341,-680 62,8 121,22 176,41 88,31 166,58 235,82 278,60 544,72 790,36 90,-33 200,-72 334,-118 53,-18 110,-32 169,-40l9 -1c473,-62 1010,210 1338,679 438,628 428,1482 -28,2344 -428,811 -895,1276 -1387,1382 -73,15 -141,22 -205,22z"/>
  <path class="fil1" d="M44486 7605c6,209 51,659 332,923 175,163 416,232 719,205 5,-187 -65,-758 -1051,-1128zm925 1302c-289,0 -526,-86 -708,-257 -432,-406 -385,-1139 -384,-1170 2,-26 16,-50 38,-64 21,-15 49,-18 73,-10 1430,483 1274,1381 1267,1419 -7,36 -36,63 -72,68 -74,9 -145,14 -214,14z"/>
  <path class="fil1" d="M47558 10763l-168 -15c79,-882 -681,-1106 -714,-1115l45 -162c9,2 929,268 837,1292z"/>
  <path class="fil1" d="M45514 9097c-2,-28 -43,-702 650,-1132l89 143c-603,375 -572,953 -571,977l-168 12z"/>
 </g>
</svg>
